<svg version="1.1" viewBox="0 0 256 256" xmlns="http://www.w3.org/2000/svg"><path d="m211.7 32-16.67 16.62a104.3 104 0 0135.78 78.38 104.3 104 0 01-36.44 78.56l18.5 18.44a128 127.6 0 0043.12-95.48 128 127.6 0 00-44.3-96.52zm-168.9 1.513a128 127.6 0 00-42.75 95.01 128 127.6 0 0041.63 93.9l16.92-16.87a104.3 104 0 01-36.44-78.56 104.3 104 0 0135.99-78.18z" fill="#cf94d9"/><path d="m175.3 68.31-16.83 16.78a52.83 52.67 0 0120.85 41.91 52.83 52.67 0 01-21.45 42.14l16.98 16.92a76.48 76.24 0 0028.12-59.06 76.48 76.24 0 00-27.67-58.68zm-97.55.06034a76.48 76.24 0 00-27.74 58.62 76.48 76.24 0 0028.21 58.98l16.89-16.84a52.83 52.67 0 01-21.44-42.14 52.83 52.67 0 0120.95-41.8z" fill="#9f29b5"/><path d="m150.9 127a24.38 24.31 0 01-24.38 24.31 24.38 24.31 0 01-24.38-24.31 24.38 24.31 0 0124.38-24.31 24.38 24.31 0 0124.38 24.31z" fill="#781ea1"/></svg>
