<svg preserveAspectRatio="xMidYMid" version="1.1" viewBox="0 0 256 256" xmlns="http://www.w3.org/2000/svg"><rect x="182.9" y="48.76" width="24.38" height="12.19" rx="5" fill="#56b3b4"/><rect y="243.8" width="73.14" height="12.19" rx="5" fill="#ea5e5e"/><rect x="146.3" y="146.3" width="48.76" height="12.19" rx="5" fill="#bf85bf"/><rect x="73.14" y="146.3" width="60.95" height="12.19" rx="5" fill="#ea5e5e"/><rect y="146.3" width="60.95" height="12.19" rx="5" fill="#56b3b4"/><rect y="195" width="73.14" height="12.19" rx="5" fill="#bf85bf"/><rect y="97.52" width="73.14" height="12.19" rx="5" fill="#bf85bf"/><rect x="60.95" y="24.38" width="134.1" height="12.19" rx="5" fill="#f7ba3e"/><rect y="24.38" width="48.76" height="12.19" rx="5" fill="#ea5e5e"/><rect x="48.76" y="219.4" width="24.38" height="12.19" rx="5" fill="#f7ba3e"/><rect x="48.76" y="73.14" width="24.38" height="12.19" rx="5" fill="#56b3b4"/><rect y="219.4" width="36.57" height="12.19" rx="5" fill="#56b3b4"/><rect y="73.14" width="36.57" height="12.19" rx="5" fill="#f7ba3e"/><rect x="158.5" y="219.4" width="24.38" height="12.19" rx="5" fill="#d0d4d8" opacity=".5"/><rect x="85.33" y="219.4" width="60.95" height="12.19" rx="5" fill="#d0d4d8" opacity=".5"/><rect x="195" y="219.4" width="60.95" height="12.19" rx="5" fill="#d0d4d8" opacity=".5"/><rect x="97.52" y="121.9" width="109.7" height="12.19" rx="5" fill="#56b3b4"/><rect x="36.57" y="121.9" width="48.76" height="12.19" rx="5" fill="#f7ba3e"/><rect y="121.9" width="24.38" height="12.19" rx="5" fill="#ea5e5e"/><rect x="109.7" y="48.76" width="60.95" height="12.19" rx="5" fill="#bf85bf"/><rect y="48.76" width="97.52" height="12.19" rx="5" fill="#56b3b4"/><rect x="36.57" y="170.7" width="121.9" height="12.19" rx="5" fill="#f7ba3e"/><rect y="170.7" width="24.38" height="12.19" rx="5" fill="#bf85bf"/><rect x="146.3" y="73.14" width="73.14" height="12.19" rx="5" fill="#ea5e5e"/><rect x="146.3" y="97.52" width="73.14" height="12.19" rx="5" fill="#f7ba3e"/><rect width="158.5" height="12.19" rx="5" fill="#56b3b4"/><rect x="170.7" width="85.33" height="12.19" rx="5" fill="#d0d4d8" opacity=".5"/><rect x="170.7" y="170.7" width="36.57" height="12.19" rx="5" fill="#d0d4d8" opacity=".5"/><rect x="219.4" y="170.7" width="36.57" height="12.19" rx="5" fill="#d0d4d8" opacity=".5"/><rect x="207.2" y="146.3" width="48.76" height="12.19" rx="5" fill="#d0d4d8" opacity=".5"/><rect x="207.2" y="24.38" width="48.76" height="12.19" rx="5" fill="#d0d4d8" opacity=".5"/><rect x="219.4" y="121.9" width="36.57" height="12.19" rx="5" fill="#d0d4d8" opacity=".5"/><rect x="219.4" y="48.76" width="36.57" height="12.19" rx="5" fill="#d0d4d8" opacity=".5"/><rect x="231.6" y="73.14" width="24.38" height="12.19" rx="5" fill="#d0d4d8" opacity=".5"/><rect x="231.6" y="97.52" width="24.38" height="12.19" rx="5" fill="#d0d4d8" opacity=".5"/><rect x="134.1" y="195" width="121.9" height="12.19" rx="5" fill="#d0d4d8" opacity=".5"/><rect x="85.33" y="195" width="36.57" height="12.19" rx="5" fill="#d0d4d8" opacity=".5"/><rect x="182.9" y="243.8" width="73.14" height="12.19" rx="5" fill="#d0d4d8" opacity=".5"/><rect x="85.33" y="243.8" width="85.33" height="12.19" rx="5" fill="#d0d4d8" opacity=".5"/><rect x="85.33" y="73.14" width="48.76" height="12.19" rx="5" fill="#d0d4d8" opacity=".5"/><rect x="85.33" y="97.52" width="48.76" height="12.19" rx="5" fill="#d0d4d8" opacity=".5"/></svg>
