<svg fill="none" version="1.1" viewBox="0 0 100 100" xmlns="http://www.w3.org/2000/svg"><mask id="b" x="0" y="0" width="100" height="100" mask-type="alpha" maskUnits="userSpaceOnUse"><path d="m70.91 99.32c1.575.6136 3.371.5743 4.961-.1907l20.59-9.907c2.163-1.041 3.539-3.23 3.539-5.632v-67.17c0-2.402-1.376-4.592-3.539-5.632l-20.59-9.907c-2.086-1.004-4.528-.758-6.359.5732-.2615.1902-.5107.4025-.7445.6365l-39.41 35.96-17.17-13.03c-1.598-1.213-3.834-1.114-5.318.2365l-5.506 5.009c-1.816 1.652-1.818 4.508-.0045 6.162l14.89 13.58-14.89 13.58c-1.813 1.654-1.811 4.511.0045 6.162l5.506 5.009c1.484 1.35 3.72 1.45 5.318.2364l17.17-13.03 39.41 35.96c.6235.6239 1.356 1.094 2.143 1.4zm4.103-72.02-29.91 22.7 29.91 22.7v-45.4z" clip-rule="evenodd" fill="#fff" fill-rule="evenodd"/></mask><g mask="url(#b)"><path d="m96.46 10.8-20.6-9.921c-2.385-1.148-5.235-.6639-7.107 1.208l-67.45 61.5c-1.814 1.654-1.812 4.51.0045 6.162l5.51 5.009c1.485 1.35 3.722 1.45 5.321.2365l81.23-61.62c2.725-2.067 6.639-.1237 6.639 3.297v-.2392c0-2.401-1.375-4.59-3.539-5.631z" fill="#0065A9"/><g filter="url(#d)"><path d="m96.46 89.2-20.6 9.921c-2.385 1.148-5.235.6639-7.107-1.208l-67.45-61.5c-1.814-1.654-1.812-4.511.0045-6.162l5.51-5.009c1.485-1.35 3.722-1.45 5.321-.2365l81.23 61.62c2.725 2.067 6.639.1237 6.639-3.297v.2392c0 2.401-1.375 4.59-3.539 5.631z" fill="#007ACC"/></g><g filter="url(#c)"><path d="m75.86 99.13c-2.386 1.148-5.236.6622-7.108-1.21 2.306 2.306 6.25.6729 6.25-2.589v-90.66c0-3.262-3.944-4.895-6.25-2.589 1.872-1.872 4.722-2.357 7.108-1.21l20.6 9.907c2.165 1.041 3.541 3.23 3.541 5.632v67.17c0 2.402-1.377 4.592-3.541 5.632l-20.6 9.907z" fill="#1F9CF0"/></g><g opacity=".25" style="mix-blend-mode:overlay"><path d="m70.85 99.32c1.575.6135 3.371.5742 4.961-.1907l20.59-9.907c2.163-1.041 3.539-3.23 3.539-5.633v-67.17c0-2.402-1.376-4.592-3.539-5.633l-20.59-9.907c-2.086-1.004-4.528-.758-6.359.5732-.2615.1902-.5107.4025-.7445.6365l-39.41 35.96-17.17-13.03c-1.598-1.213-3.834-1.114-5.318.2364l-5.506 5.009c-1.816 1.652-1.818 4.508-.0045 6.162l14.89 13.58-14.89 13.58c-1.813 1.654-1.811 4.51.0045 6.162l5.506 5.009c1.484 1.35 3.72 1.45 5.318.2365l17.17-13.03 39.41 35.96c.6235.6238 1.356 1.094 2.143 1.4zm4.103-72.02-29.91 22.7 29.91 22.7v-45.4z" clip-rule="evenodd" fill="url(#a)" fill-rule="evenodd"/></g></g><defs><filter id="d" x="-8.394" y="15.83" width="116.7" height="92.25" color-interpolation-filters="sRGB" filterUnits="userSpaceOnUse"><feFlood flood-opacity="0" result="BackgroundImageFix"/><feColorMatrix in="SourceAlpha" values="0 0 0 0 0 0 0 0 0 0 0 0 0 0 0 0 0 0 127 0"/><feOffset/><feGaussianBlur stdDeviation="4.16667"/><feColorMatrix values="0 0 0 0 0 0 0 0 0 0 0 0 0 0 0 0 0 0 0.25 0"/><feBlend in2="BackgroundImageFix" mode="overlay" result="effect1_dropShadow"/><feBlend in="SourceGraphic" in2="effect1_dropShadow" result="shape"/></filter><filter id="c" x="60.42" y="-8.076" width="47.92" height="116.2" color-interpolation-filters="sRGB" filterUnits="userSpaceOnUse"><feFlood flood-opacity="0" result="BackgroundImageFix"/><feColorMatrix in="SourceAlpha" values="0 0 0 0 0 0 0 0 0 0 0 0 0 0 0 0 0 0 127 0"/><feOffset/><feGaussianBlur stdDeviation="4.16667"/><feColorMatrix values="0 0 0 0 0 0 0 0 0 0 0 0 0 0 0 0 0 0 0.25 0"/><feBlend in2="BackgroundImageFix" mode="overlay" result="effect1_dropShadow"/><feBlend in="SourceGraphic" in2="effect1_dropShadow" result="shape"/></filter><linearGradient id="a" x1="49.94" x2="49.94" y1=".2578" y2="99.74" gradientUnits="userSpaceOnUse"><stop stop-color="#fff" offset="0"/><stop stop-color="#fff" stop-opacity="0" offset="1"/></linearGradient></defs></svg>
