<svg width="800" height="942" version="1.1" viewBox="0 0 211.7 249.2" xmlns="http://www.w3.org/2000/svg"><g stroke-width=".8256"><path d="m185.4 177.4c.8254 0 .8254-.3303.8254-1.073 0-1.817-.8254-3.963-3.302-6.358-5.874-5.119-11.6-4.101-18.16-5.367 2.476-7.679 3.302-14.45 3.302-20.4 0-8.257-1.651-14.04-4.952-18.99-3.302-4.954-6.603-7.431-10.73-8.257-.8254.8257-.8254.8257-.8254 1.651 4.127 1.651 8.254 4.954 10.73 9.909 2.476 5.78 3.302 10.73 3.302 16.51 0 4.624-.8254 11.48-4.127 20.23-3.302 1.321-6.603 4.376-9.079 9.165 0 .7432 0 1.156.8254 1.156 1.837-2.095 3.816-4.66 5.778-6.358 5.223-2.908 11.91-2.839 17.33-.4128 3.302 1.073 4.952 2.229 5.778 3.551 1.604 1.553 1.88 3.568 3.302 5.037m-80.15 58.92c-10.73 0-18.98 1.453-24.76 4.335v-.2477c-4.127 4.954-8.749 7.514-15.19 7.514-4.044 0-10.4-1.569-18.98-4.707-8.667-2.973-16.34-5.252-23.03-6.754-5.436-1.153-11.56-1.88-16.76-3.674-2.063-.6523-3.714-1.503-4.952-2.535-2.262-2.321-1.798-5.204-.8584-7.762 8.742-13.39 3.555-14.92 3.417-28.24.1314-4.892 1.968-10.62 8.558-11.54 18.68-.8236 10.92-1.359 16.53-10.34-1.119-1.811-1.121-3.463-.8254-5.45 0-2.973 1.403-7.184 4.375-12.72 2.894-5.377 6.338-11.13 8.419-16.27 1.403-3.303 2.889-8.257 4.54-14.86 1.321-5.78 4.457-11.56 9.409-17.34 7.531-8.987 16.94-20.61 17.25-30.55-.9443-12.97-2.531-25.67-2.559-38.81.5061-24.97 11.38-36.22 35.41-36.33 15.66.09794 26.78 6.683 34.67 19.82 1.651 4.954 3.302 9.909 4.127 16.51 1.637 11.65 1.974 23.6 4.127 34.68 3.067 12.47 11.68 22.53 18.16 32.2 7.429 8.257 13.21 17.34 16.51 26.42 4.127 8.257 6.603 18.99 6.603 30.47 0 5.697-.8254 11.23-2.476 16.6 1.651 0 2.476.6606 3.302 1.817.8254 1.156 1.651 3.633 2.476 7.514.2152 4.622 1.655 9.105 4.952 11.15 1.651 1.486 3.302 2.725 5.778 3.716 1.651.8257 4.127 1.982 5.778 3.468 3.26 3.292 3.04 8.728 0 11.56-4.844 3.863-10.97 6.135-15.68 8.356-4.127 2.444-8.254 5.408-12.38 8.918-5.814 4.51-11.11 10.39-17.33 13.96-5.126 2.727-9.343 2.199-14.86 1.569-6.603-1.734-10.73-5.037-13.21-10.07-13.21-1.602-23.94-2.395-30.54-2.395"/><path d="m97.13 55.98c-2.476 0-6.603 1.651-12.38 4.954-4.952 3.303-8.254 6.606-8.254 9.909 3.334 4.806 11.04 8.98 16.51 9.083 6.603 0 14.86-3.303 25.59-11.56v1.651c.8254 0 .8254.8257.8254.8257-10.73 7.431-18.98 10.73-25.59 10.73-5.778 0-11.56-2.477-16.51-6.606.8254 1.651 1.651 3.303 2.476 4.129 4.463 4.922 7.232 9.996 16.51 9.909 9.275-.08697 18.29-7.522 28.06-14.04 1.651-1.651 3.302-3.303 3.302-5.78-1.537-4.865-11.01-7.333-14.03-8.257-7.429-3.303-13.21-4.954-16.51-4.954zm-3.302 1.651c.8254 0 .8254.8257.8254.8257 0 .8257-.8254 1.651-2.476 3.303h-.8254c-.8254 0-.8254 0-.8254-.8257 0-.8257 0-1.651.8254-2.477 1.651 0 2.476-.8257 2.476-.8257zm4.952 0c1.359.5846 3.25 1.897 3.302 3.303 0 .8257-.8254.8257-.8254.8257-1.471-.08661-3.255-1.993-3.302-3.303 0-.8257 0-.8257.8254-.8257zm-60.93 114.4c-2.62-.2266-5.18.5986-7 2.948-1.156 1.569-1.815 3.302-1.98 5.119-.8645 5.245-6.278 4.869-10.15 4.872-7.268-.2608-11.95 1.984-12.05 9.331 1.266 8.134 3.317 16.76-1.074 24.11-2.063 3.551-3.136 6.192-3.136 8.075.8254 3.204 6.272 5.459 16.26 6.78v.0242c7.676 1.123 16.51 3.527 26.49 7.193 9.987 3.633 16.1 5.532 18.32 5.532 5.778 0 10.56-2.56 14.53-7.506.8254-1.602.8254-3.484.8254-5.648 0-7.803-4.704-17.67-14.11-29.64-6.382-7.084-9.379-14.87-14.53-22.13-1.073-1.899-2.806-3.799-5.035-5.698-2.062-1.856-4.742-3.134-7.362-3.361zm109.6 3.972c-7.901 2.383-4.307 22.47-5.778 32.62-1.471 10.15-5.482 24.61-3.302 28.9v.1645c3.302 6.209 9.079 9.331 15.68 9.331 12.52-.306 18.35-10.63 28.06-17.67 3.302-2.634 6.603-4.938 10.73-6.936 4.254-2.976 10.31-4.072 14.03-7.019 3.467-3.33 3.755-7.995-1.209-10.42-3.915-2.163-8.376-4.329-11.17-6.838-3.324-4.705-4.012-8.335-4.952-13.79-.8254-2.229-.8254-3.882-1.651-4.79 0-.2477 0-.3306-.8254-.3306-.8254 0-2.476.7444-3.302 2.148-3.473 3.179-6.424 6.248-9.905 9.165-2.476 1.404-4.952 2.147-6.603 2.147-11.21-.7688-13.5-5.4-15.68-14.53-1.651-1.404-2.476-2.147-4.127-2.147z" fill="#edc442"/><path d="m87.23 52.68c0-4.129-1.651-6.606-4.127-6.606 0 0 0 .8257-.8254.8257v1.651h2.476c.2411 1.651.5682 2.541.8254 4.129h1.651m28.89-4.129c1.651 0 2.476 1.651 3.302 4.129h1.651c-1.394-2.17-.6753-6.478-4.127-6.606 0 0-.8254.8257-1.651.8257 0 .8257.8254.8257.8254 1.651m-33.84 12.39c-3.302-1.651-4.127-4.129-4.127-8.257.03029-3.779 1.724-8.18 5.778-8.257 5.24.927 5.752 7.534 5.778 11.56h.8254c.6241-2.22.8248-3.928.8254-5.78.1468-5.617-3.169-11.46-8.254-11.56-6.924.9422-7.742 9.277-7.759 14.04 0 3.303 1.156 6.606 4.457 9.909.8254-.8257 1.651-.8257 2.476-1.651m27.24-3.303c-.8254-.8257-.8254-2.477-.8254-4.129-.065-4.639 1.485-9.811 6.603-9.909 5.207.5018 7.379 5.919 7.429 9.909 0 4.129-1.651 6.606-4.952 7.431 2.137.661 4.107 1.627 5.778 2.477.8254-4.954 1.651-8.257 1.651-12.39.2406-7.748-3.37-13.96-10.73-14.04-5.665.1566-9.839 3.991-9.905 9.083 0 4.129.8254 7.431 2.476 10.73.8568.3141 1.651.8257 2.476.8257m-63.31 100.5c0-5.697 1.486-11.97 4.54-19.4 1.845-6.67 10.25-13.97 6.768-17.34-2.394 2.477-5.283 8.257-8.749 16.51-3.467 7.431-5.283 14.28-5.283 19.32 0 3.716.9079 6.936 2.559 9.743 1.816 2.725 6.19 6.688 13.12 11.73l8.749 5.697c9.327 8.092 14.28 13.71 14.28 17.01 0 1.734-.8254 3.468-3.302 5.367-1.651 1.982-3.879 2.973-5.778 2.973-.1651 0-.2476.1651-.2476.578 0 .0826.8254 1.734 2.559 4.954 3.467 4.707 10.9 7.019 20.8 7.019 18.16 0 32.19-7.431 42.92-22.29-.0372-7.658-.531-15.46 2.203-22.57 1.651-2.642 3.302-3.881 5.778-3.881 1.651 0 2.75.2713 4.401 1.51.8254-6.358.8254-11.89.8254-16.84-.0599-11.48-.8643-21.94-5.778-31.87-9.95-16.22-14.53-32.88-22.29-48.72-8.083 6.415-18.7 14.22-28.06 14.04-9.367-.1856-10.32-3.098-16.51-8.257-5.314 15.59-11.73 32.82-18.41 46.24-6.686 12.39-10.07 23.86-10.07 33.36 0 1.899.1651 3.881.4952 5.863-3.714-2.56-5.53-6.11-5.53-10.73m139.2 19.2c.8254 0 .8254-.3303.8254-1.073 0-1.817-.8254-3.963-3.302-6.358-5.874-5.119-11.6-4.101-18.16-5.367 2.476-7.679 3.302-14.45 3.302-20.4 0-8.257-1.651-14.04-4.952-18.99-3.302-4.954-6.603-7.431-10.73-8.257-.8254.8257-.8254.8257-.8254 1.651 4.127 1.651 8.254 4.954 10.73 9.909 2.476 5.78 3.302 10.73 3.302 16.51 0 4.624-.8254 11.48-4.127 20.23-3.302 1.321-6.603 4.376-9.079 9.165 0 .7432 0 1.156.8254 1.156 1.837-2.095 3.816-4.66 5.778-6.358 5.223-2.908 11.91-2.839 17.33-.4128 3.302 1.073 4.952 2.229 5.778 3.551 1.604 1.553 1.88 3.568 3.302 5.037" fill="#fff"/></g></svg>
