<svg width="256" height="133" version="1.1" viewBox="0 0 67.7 35.2" xmlns="http://www.w3.org/2000/svg"><path d="m0 32.1h2.23v-8.86l3.5 7.73c.395.927.961 1.27 2.06 1.27 1.1 0 1.63-.343 2.05-1.27l3.48-7.73v8.86h2.25v-8.86c0-.858-.343-1.27-1.06-1.5-1.71-.515-2.84-.0686-3.36 1.08l-3.42 7.64-3.3-7.64c-.498-1.15-1.65-1.6-3.37-1.08-.707.223-1.05.635-1.05 1.5zm17.4-7.21h2.25v4.87c-.0172.275.0858.896 1.3.913.638.0172 4.85 0 4.89 0v-5.82h2.25v7.97c0 1.96-2.43 2.39-3.56 2.41h-7.09v-1.5h7.1c1.44-.154 1.27-.875 1.27-1.12v-.587h-4.76c-2.22-.0172-3.64-.995-3.66-2.12 0-.103.0515-4.99 0-5.02zm30.1-20.5v.0343h.0343c.419.475.689 1.01.947 1.53l.0343-.0343c.884-.835-.291-1.7-1.02-1.53zm18.2 14.9c-.779.0806-3.92.05-4.04.913.137.137.151.36.275.549.491.809 1.27 1.38 1.99 1.84 1.22.54 2.2 1.17 3.22 1.88.192.137.312.364.552.446v-.0515c-.12-.154-.154-.377-.275-.549-.778-.748-1.51-1.67-2.31-2.24-.549-.378-1.75-.892-1.98-1.53l-.0343-.0343c.961-.283 2.06-.344 2.91-.549.275-.0686.549-.158.824-.24v-.158c-.309-.309-.532-.721-.858-1.02-1.44-1.39-2.99-2.14-4.62-2.98-.209-.103-.552-.154-.673-.326-.309-.378-.48-.879-.707-1.32-2.12-5.02-4.43-8.71-8.94-11.4-1.17-.594-2.3-.723-3.49-.772-.275-.12-.549-.446-.789-.604-.981-.618-3.51-1.96-4.23-.189-.463 1.12.686 2.22 1.08 2.79.292.398.669.844.875 1.29.343 1.08.695 2.27 1.17 3.22.131.672.968 1.16 1.07 1.65-.24.343-.257.861-.398 1.29-.618 1.94-.377 4.35.501 5.78.275.432.927 1.38 1.81 1.02.776-.309.601-1.29.824-2.15.0549-.206.0172-.343.12-.48v.0343c.24.48.48.947.707 1.43.532.844 1.46 1.72 2.24 2.31.412.309.738.844 1.25 1.03v-.048h-.0343c-.103-.154-.257-.223-.395-.343-.309-.309-.652-.69-.892-1.03-.729-.989-1.37-2.04-1.93-3.13-.275-.532-.515-1.12-.738-1.65-.103-.206-.103-.515-.275-.618-.261.378-.638.704-.827 1.17-.432 1.06-.205 4.5-1.5 1.44-.515-1.22-.601-3.18-.154-4.59.12-.364.635-1.5.429-1.84-.103-.326-.446-.515-.635-.772-.239-.348-.446-.716-.618-1.1-.412-.964-.618-2.03-1.07-3-.206-.446-.57-.913-.858-1.32-.329-.463-.69-.789-.947-1.34-.0858-.192-.206-.501-.0686-.707.26-.462.893-.265 1.32-.0721.635.261 1.17.501 1.7.861.24.172.501.498.81.583h.36c1.54.0313 2.95.619 4.16 1.38 4.04 2.83 5.27 5.62 7.01 9.58.364.81.707 1.64 1.22 2.31.261.364 1.29.549 1.75.741 1.1.441 3.91 2.05 4.09 2.63z" fill="#00678c"/><path d="m29.8 32.1h6.47c.755 0 1.48-.154 2.07-.429.978-.446 1.44-1.05 1.44-1.84v-1.65c0-.638-.532-1.24-1.6-1.65-.613-.218-1.26-.329-1.91-.326h-2.71c-.913 0-1.34-.275-1.46-.879-.0332-.453-.0404-.97 0-1.41.12-.467.36-.583 1.15-.673h6.62v-1.5h-6.29c-.913 0-1.39.0515-1.83.189-1.32.412-1.91 1.07-1.91 2.22v1.31c0 1.02 1.13 1.88 3.06 2.08 1.04.067 2.16-.0489 3.22.0343.707.0686 1.02.189 1.22.446.137.137.172.257.172.412v1.31c0 .151-.103.36-.309.532-.279.204-.616.312-.961.309-.0892 0-.137.0172-.226.0172h-6.21zm24-2.6c.0216 1.88 1.84 2.66 4.11 2.6h5.85v-1.5h-5.9c-1.31 0-1.81-.326-1.81-1.12v-7.74h-2.25zm-12.6.0686v-5.33c0-1.36.961-2.19 2.84-2.44.206-.0172.412-.0343.604-.0343h4.26c.223 0 .412.0172.638.0343 1.87.257 2.82 1.08 2.82 2.44v5.33c0 1.1-.395 1.69-1.32 2.08l2.2 1.99h-2.6l-1.78-1.61-1.81.103h-2.41c-.395 0-.841-.0549-1.3-.172-1.43-.398-2.13-1.16-2.13-2.4zm2.43-.12c.0257.95 1.08 1.18 1.65 1.19h2.03l-1.85-1.69h2.59l1.63 1.48c.309-.172.498-.412.566-.721v-5.55c-.12-.583-.703-.909-1.58-.909h-3.39c-.995 0-1.65.432-1.65 1.12zm21.1 2.67h.326v-1.26h.429v-.257h-1.2v.257h.446zm2.49 0h.309v-1.51h-.463l-.377 1.03-.412-1.03h-.446v1.51h.292l.0086-1.15.438 1.15h.223l.429-1.15z" fill="#ce8b2c"/></svg>
