<svg width="850" height="850" version="1.1" viewBox="0 0 224.896 224.896" xmlns="http://www.w3.org/2000/svg"><path d="m112.448 0a112.448 112.448 0 00-112.448 112.448 112.448 112.448 0 00112.448 112.448 112.448 112.448 0 00112.448-112.448 112.448 112.448 0 00-112.448-112.448z" fill="#167abc" stop-color="#000000" stroke-opacity=".996337" stroke-width=".444426"/><path d="m112.448 28.4427c-46.3947 3e-6-84.0051 37.6103-84.0052 84.0049-.000177 46.3949 37.6103 84.0055 84.0052 84.0055s84.0054-37.6106 84.0052-84.0055c-.00011-46.3947-37.6105-84.0049-84.0052-84.0049zm-2.35334 49.0522c-8.33471-.149519-16.4888-1.67469-24.1122-4.23849 5.5313-12.9292 13.7514-24.5128 23.8564-33.9322 1.04107 11.5543.2558 25.9497.2558 38.1707zm5.55508-38.1622c9.91463 10.5795 18.778 22.52 23.7326 33.8389-7.64989 2.8402-15.863 3.97344-23.7314 4.29895-.008-12.7126.0121-25.4253-.001-38.1378zm8.60736.778542c15.0112 2.42246 28.9226 9.53288 39.6203 19.9403-5.86799 4.72954-12.4538 8.2783-19.1244 11.1383-.0549.0204-.10985.0407-.16485.061-4.91556-11.5758-11.8675-22.1364-20.3311-31.1396zm-23.1996.05943c-8.59644 9.17367-15.442 19.7979-20.2535 31.1747-7.18718-2.69616-13.6259-6.78465-19.5104-11.2654 10.9319-10.6277 24.9851-17.5545 39.764-19.9093zm66.5556 23.8114c11.2156 12.7829 17.6463 29.0627 18.1937 46.0596h-32.799c-.2528-11.545-2.39687-22.9704-6.3469-33.8216 7.50641-3.11095 14.555-7.22796 20.9522-12.238zm-110.055.02635c6.6035 5.13517 13.7638 9.26258 21.2757 12.3377-3.93352 10.8388-6.04516 22.2689-6.29936 33.6955h-33.2026c.54058-16.9672 7.14228-33.3976 18.2263-46.0332zm83.8714 14.0322c3.74414 10.2662 5.78183 21.0762 6.03219 32.0011h-31.8105v-27.1058c8.78634-.35865 17.4721-2.00806 25.7783-4.89529zm-57.3459.13075c8.38511 2.87933 17.151 4.49891 26.0113 4.80589v27.0644h-32.013c.254773-10.8791 2.28194-21.6437 6.0017-31.8703zm-44.727 37.4271h33.1928c.376455 13.2194 3.23178 26.2505 8.41757 38.4161-7.07591 2.6599-13.787 6.20406-19.9735 10.5482-13.1173-13.0169-20.8437-30.5015-21.6369-48.9643zm38.7398 0h31.9986v32.7348c-8.0889.2517-16.1065 1.5975-23.8342 4.00077-5.01964-11.6189-7.79005-24.0843-8.16436-36.7356zm37.5548 0h31.7862c-.41285 12.6423-3.21827 25.0917-8.26771 36.6891-7.62935-2.35259-15.5388-3.67549-23.5185-3.9336zm37.3331 0h32.7954c-.79326 18.4628-8.51958 35.9474-21.6369 48.9643-6.14941-4.2327-12.8034-7.68068-19.8076-10.2639 5.30017-12.2385 8.2349-25.3699 8.64908-38.7004zm-37.3331 38.2027c7.12786.22862 14.2706 1.44659 21.1972 3.5176l.0501.016c-5.34378 10.626-12.5387 20.2144-21.2473 28.3155zm-5.55625.0336v32.0606c-8.72756-9.03287-16.6864-19.0933-21.5455-28.5975 6.81875-2.11612 14.1164-3.33124 21.5455-3.46335zm-26.8469 5.24824c4.67545 9.50774 10.7546 18.258 18.0335 25.957-13.3601-2.07517-25.8877-7.79899-36.2019-16.5405 5.46311-3.84618 11.6019-7.07931 18.1684-9.41645zm58.9153.0419c6.2912 2.3176 12.322 5.50518 17.9374 9.34203-10.2415 8.67517-22.6651 14.377-35.9203 16.4858 7.25031-7.66307 13.3118-16.3689 17.9829-25.8278z" color="#000000" fill="#fff" stroke-width=".382875" style="-inkscape-stroke:none"/></svg>
