<svg preserveAspectRatio="xMidYMid" version="1.1" viewBox="0 0 256 289" xmlns="http://www.w3.org/2000/svg"><path d="m128 288.5c-3.975 0-7.685-1.06-11.13-2.915l-35.25-20.94c-5.3-2.915-2.65-3.975-1.06-4.505 7.155-2.385 8.48-2.915 15.9-7.156.796-.53 1.856-.265 2.65.265l27.03 16.17c1.06.53 2.385.53 3.18 0l105.7-61.22c1.06-.53 1.59-1.59 1.59-2.915v-122.2c0-1.325-.53-2.385-1.59-2.915l-105.7-60.95c-1.06-.53-2.385-.53-3.18 0l-105.7 60.95c-1.06.53-1.59 1.855-1.59 2.915v122.2c0 1.06.53 2.385 1.59 2.915l28.89 16.7c15.64 7.95 25.44-1.325 25.44-10.6v-120.6c0-1.59 1.326-3.18 3.181-3.18h13.52c1.59 0 3.18 1.325 3.18 3.18v120.6c0 20.94-11.4 33.13-31.27 33.13-6.095 0-10.86 0-24.38-6.625l-27.83-15.9c-6.89-3.976-11.13-11.4-11.13-19.35v-122.2c0-7.95 4.24-15.37 11.13-19.35l105.7-61.22c6.625-3.71 15.64-3.71 22.26 0l105.7 61.22c6.89 3.975 11.13 11.4 11.13 19.35v122.2c0 7.95-4.24 15.37-11.13 19.34l-105.7 61.22c-3.445 1.59-7.42 2.385-11.13 2.385zm32.6-84.01c-46.38 0-55.92-21.2-55.92-39.22 0-1.59 1.325-3.18 3.18-3.18h13.78c1.59 0 2.916 1.06 2.916 2.65 2.12 14.04 8.215 20.94 36.31 20.94 22.26 0 31.8-5.035 31.8-16.96 0-6.891-2.65-11.93-37.37-15.37-28.89-2.915-46.91-9.275-46.91-32.33 0-21.47 18.02-34.19 48.23-34.19 33.92 0 50.62 11.66 52.74 37.1-.1479 2.006-1.248 2.965-2.915 3.445h-13.78c-1.326 0-2.65-1.06-2.916-2.385-3.18-14.58-11.4-19.34-33.13-19.34-24.38 0-27.3 8.48-27.3 14.84 0 7.686 3.445 10.07 36.31 14.31 32.6 4.24 47.97 10.34 47.97 33.13-.265 23.32-19.34 36.57-53 36.57z" fill="#539e43"/></svg>
