<svg width="256" height="194" version="1.1" viewBox="0 0 67.73 51.33" xmlns="http://www.w3.org/2000/svg" xmlns:xlink="http://www.w3.org/1999/xlink"><defs><linearGradient id="a"><stop stop-color="#4f8bf3" offset="0"/><stop stop-color="#3f6ec1" offset="1"/></linearGradient><linearGradient id="b" x1="76.22" x2="128.1" y1="133.5" y2="133.6" gradientTransform="matrix(1.075 0 0 1.079 -70.14 -118.4)" gradientUnits="userSpaceOnUse" xlink:href="#a"/><linearGradient id="c" x1="171.8" x2="373.4" y1="487.2" y2="486.5" gradientTransform="matrix(-.2844 0 0 -.2854 111.3 166.8)" gradientUnits="userSpaceOnUse" xlink:href="#a"/></defs><rect transform="matrix(1 0 -.2244 .9745 0 0)" x="11.06" y="-5.036e-8" width="57.43" height="52.67" ry="3.8" fill="url(#b)" opacity=".999" stroke-width="1.077"/><path d="m52.88 51.33c2.097 0 4.166-1.651 4.638-3.702l10.11-43.92c.4719-2.052-.8363-3.703-2.934-3.703h-49.86c-2.098 0-4.166 1.652-4.639 3.703l-10.11 43.92c-.473 2.051.8363 3.702 2.934 3.702zm-.3762-.507h-48.87c-2.056 0-3.339-1.618-2.876-3.629l9.913-43.06c.4633-2.011 2.492-3.629 4.548-3.629h48.87c2.056 0 3.339 1.618 2.875 3.629l-9.914 43.06c-.4622 2.011-2.491 3.63-4.547 3.63z" fill="url(#c)" stroke-width="1.077"/><path d="m27.64 8.585c-.2806-.2977 4.039 4.32 13.51 14.45l-27.55 21.29a3.02 3.031 0 004.375.5933l8.188-6 14.35-10.4c1.15-.7659 2.042-1.879 1.867-3.305-.07417-.6073-.2859-1.137-.6525-1.572zm20.58 31.94-17.21 1.955a2.553 2.562 0 002.459 1.855h12.51a2.554 2.563 0 002.558-2.567c0-.452-.115-.8738-.3171-1.243z" opacity=".203" stroke-width="1.077"/><path d="m23.51 5.569a3.026 3.037 0 00-2.095 5.228l12.83 13.77c-6.972 4.27-13.72 9.963-20.47 14.89a3.026 3.037 0 103.629 4.854l8.186-6.001 14.35-10.4c1.15-.7659 2.042-1.879 1.867-3.305-.07524-.6084-.2859-1.137-.6525-1.573l-15.38-16.44a3.027 3.038 0 00-2.264-1.022zm9.743 33.1a2.554 2.563 0 00-2.558 2.567 2.554 2.563 0 002.558 2.57h12.51a2.554 2.563 0 002.559-2.569 2.554 2.563 0 00-2.558-2.57z" fill="#fff" opacity=".999" stroke-width="1.077"/></svg>
