<svg width="256" height="256" version="1.1" viewBox="0 0 67.73 67.73" xmlns="http://www.w3.org/2000/svg"><path d="m31.03 5.316a2668 2668 0 0136.7-5.316c.007 10.7 0 21.39.007 32.1-12.23.046-24.46.232-36.7.27-.008-9.021-.008-18.04 0-27.05zm-31.03 4.317c9.2-1.416 18.44-2.638 27.68-3.791.008 8.875.008 17.74.016 26.62-9.23-.008-18.46.132-27.69.109zm0 25.73c9.224-.031 18.45.116 27.67.1 0 8.899.023 17.8.008 26.7-9.215-1.363-18.45-2.555-27.68-3.8zm30.97.356h36.75c.015 10.67 0 21.34 0 32.02-12.22-1.826-24.46-3.52-36.7-5.175-.016-8.945-.04-17.89-.055-26.84z" fill="#00adef"/><path d="m48.61 27.71-1.619 3.887c-.06191.147-.2036.2446-.363.25-1.252.04-2.386.272-3.559.59-.1494.04056-.3088-.0067-.412-.122l-2.762-3.088-5.7 3.475 1.63 3.844c.06172.1451.03449.3128-.07.431-.798.903-1.53 1.898-2.121 3.004-.07691.1441-.2322.2286-.395.215l-4.187-.344-1.506 6.452 3.896 1.617c.1478.0613.2462.2031.252.363.04 1.248.274 2.379.592 3.549.04066.1505-.0078.3111-.125.414l-3.191 2.814 3.498 5.608 3.943-1.613c.1436-.05824.3077-.03037.424.072.905.796 1.903 1.526 3.012 2.115.1417.07543.2262.2268.216.387l-.25 4.12 6.475 1.505 1.621-3.889c.06115-.1454.2004-.2427.358-.25 1.177-.058 2.4-.274 3.564-.59.1502-.04114.3107.0065.414.123l2.822 3.186 5.623-3.488-1.617-3.932c-.05992-.1447-.03196-.3109.072-.428.804-.909 1.513-1.821 2.102-2.924.0769-.143.2311-.227.393-.214l4.107.324 1.508-6.451-3.897-1.616c-.1478-.0613-.2462-.2031-.252-.363-.03832-1.2-.2357-2.389-.587-3.537-.04881-.1556-.000478-.3254.123-.432l3.17-2.732-3.485-5.688-3.924 1.538c-.1424.05496-.3036.02605-.418-.075-.905-.796-1.909-1.53-2.94-2.101-.1372-.07702-.2181-.2259-.208-.383l.25-4.12zm.623 11.95c4.28.994 7.056 5.332 6.04 9.684-1.014 4.346-5.361 7.045-9.706 6.025-4.356-1.012-7.056-5.338-6.04-9.685.762-3.265 3.431-5.58 6.525-6.114 1.088-.1751 2.188-.1378 3.181.09z" fill="#eaeaea" stroke="#000" stroke-linejoin="round" stroke-width=".529"/></svg>
