<svg overflow="visible" version="1.1" viewBox="0 0 198.1 197.6" xmlns="http://www.w3.org/2000/svg" xmlns:xlink="http://www.w3.org/1999/xlink"><defs><linearGradient id="c" x1="194.9" x2="141" y1="153.6" y2="117.4" gradientUnits="userSpaceOnUse"><stop stop-color="#871101" offset="0"/><stop stop-color="#911209" offset=".99"/><stop stop-color="#911209" offset="1"/></linearGradient><linearGradient id="d" x1="151.8" x2="97.93" y1="217.8" y2="181.6" gradientUnits="userSpaceOnUse"><stop stop-color="#871101" offset="0"/><stop stop-color="#911209" offset=".99"/><stop stop-color="#911209" offset="1"/></linearGradient><linearGradient id="e" x1="38.7" x2="47.05" y1="127.4" y2="181.7" gradientUnits="userSpaceOnUse"><stop stop-color="#fff" offset="0"/><stop stop-color="#e57252" offset=".23"/><stop stop-color="#de3b20" offset=".46"/><stop stop-color="#a60003" offset=".99"/><stop stop-color="#a60003" offset="1"/></linearGradient><linearGradient id="f" x1="96.13" x2="99.21" y1="76.72" y2="132.1" gradientUnits="userSpaceOnUse"><stop stop-color="#fff" offset="0"/><stop stop-color="#e4714e" offset=".23"/><stop stop-color="#be1a0d" offset=".56"/><stop stop-color="#a80d00" offset=".99"/><stop stop-color="#a80d00" offset="1"/></linearGradient><linearGradient id="g" x1="147.1" x2="156.3" y1="25.52" y2="65.22" gradientUnits="userSpaceOnUse"><stop stop-color="#fff" offset="0"/><stop stop-color="#e46342" offset=".18"/><stop stop-color="#c82410" offset=".4"/><stop stop-color="#a80d00" offset=".99"/><stop stop-color="#a80d00" offset="1"/></linearGradient><linearGradient id="h" x1="119" x2="158.7" y1="11.54" y2="-8.305" gradientUnits="userSpaceOnUse"><stop stop-color="#fff" offset="0"/><stop stop-color="#c81f11" offset=".54"/><stop stop-color="#bf0905" offset=".99"/><stop stop-color="#bf0905" offset="1"/></linearGradient><linearGradient id="i" x1="3.903" x2="7.17" y1="113.6" y2="146.3" gradientUnits="userSpaceOnUse"><stop stop-color="#fff" offset="0"/><stop stop-color="#de4024" offset=".31"/><stop stop-color="#bf190b" offset=".99"/><stop stop-color="#bf190b" offset="1"/></linearGradient><linearGradient id="j" x1="-18.56" x2="135" y1="155.1" y2="-2.809" gradientUnits="userSpaceOnUse"><stop stop-color="#bd0012" offset="0"/><stop stop-color="#fff" offset=".07"/><stop stop-color="#fff" offset=".17"/><stop stop-color="#c82f1c" offset=".27"/><stop stop-color="#820c01" offset=".33"/><stop stop-color="#a31601" offset=".46"/><stop stop-color="#b31301" offset=".72"/><stop stop-color="#e82609" offset=".99"/><stop stop-color="#e82609" offset="1"/></linearGradient><linearGradient id="k" x1="99.08" x2="52.82" y1="171" y2="159.6" gradientUnits="userSpaceOnUse"><stop stop-color="#8c0c01" offset="0"/><stop stop-color="#990c00" offset=".54"/><stop stop-color="#a80d0e" offset=".99"/><stop stop-color="#a80d0e" offset="1"/></linearGradient><linearGradient id="l" x1="178.5" x2="137.4" y1="115.5" y2="78.68" gradientUnits="userSpaceOnUse"><stop stop-color="#7e110b" offset="0"/><stop stop-color="#9e0c00" offset=".99"/><stop stop-color="#9e0c00" offset="1"/></linearGradient><linearGradient id="m" x1="193.6" x2="173.2" y1="47.94" y2="26.05" gradientUnits="userSpaceOnUse"><stop stop-color="#79130d" offset="0"/><stop stop-color="#9e120b" offset=".99"/><stop stop-color="#9e120b" offset="1"/></linearGradient><linearGradient id="p" x1="26.67" x2="9.989" y1="197.3" y2="140.7" gradientUnits="userSpaceOnUse"><stop stop-color="#8b2114" offset="0"/><stop stop-color="#9e100a" offset=".43"/><stop stop-color="#b3100c" offset=".99"/><stop stop-color="#b3100c" offset="1"/></linearGradient><linearGradient id="q" x1="154.6" x2="192" y1="9.798" y2="26.31" gradientUnits="userSpaceOnUse"><stop stop-color="#b31000" offset="0"/><stop stop-color="#910f08" offset=".44"/><stop stop-color="#791c12" offset=".99"/><stop stop-color="#791c12" offset="1"/></linearGradient><linearGradient id="b" x1="174.1" x2="132.3" y1="215.5" y2="141.8" gradientUnits="userSpaceOnUse"><stop stop-color="#fb7655" offset="0"/><stop stop-color="#e42b1e" offset=".41"/><stop stop-color="#900" offset=".99"/><stop stop-color="#900" offset="1"/></linearGradient><radialGradient id="n" cx="143.8" cy="79.39" r="50.36" gradientUnits="userSpaceOnUse"><stop stop-color="#a80d00" offset="0"/><stop stop-color="#7e0e08" offset=".99"/><stop stop-color="#7e0e08" offset="1"/></radialGradient><radialGradient id="o" cx="74.09" cy="145.8" r="66.94" gradientUnits="userSpaceOnUse"><stop stop-color="#a30c00" offset="0"/><stop stop-color="#800e08" offset=".99"/><stop stop-color="#800e08" offset="1"/></radialGradient></defs><path d="m153.5 130.4-113.1 67.17 146.5-9.939 11.28-147.7z" clip-rule="evenodd" fill="url(#b)" fill-rule="evenodd"/><path d="m187.1 187.5-12.59-86.89-34.29 45.28z" clip-rule="evenodd" fill="url(#c)" fill-rule="evenodd"/><path d="m187.3 187.5-92.23-7.24-54.16 17.09z" clip-rule="evenodd" fill="url(#d)" fill-rule="evenodd"/><path d="m41 197.4 23.04-75.48-50.7 10.84z" clip-rule="evenodd" fill="url(#e)" fill-rule="evenodd"/><path d="m140.2 146.2-21.2-83.04-60.67 56.87z" clip-rule="evenodd" fill="url(#f)" fill-rule="evenodd"/><path d="M193.32 64.31l-57.35-46.84L120 69.1z" clip-rule="evenodd" fill="url(#g)" fill-rule="evenodd"/><path d="M166.5.77l-33.73 18.64L111.49.52z" clip-rule="evenodd" fill="url(#h)" fill-rule="evenodd"/><path d="m0 158.1 14.13-25.77-11.43-30.7z" clip-rule="evenodd" fill="url(#i)" fill-rule="evenodd"/><path d="m1.94 100.6 11.5 32.62 49.97-11.21 57.05-53.02 16.1-51.14-25.35-17.9-43.1 16.13c-13.58 12.63-39.93 37.62-40.88 38.09-.94.48-17.4 31.59-25.29 46.43z" clip-rule="evenodd" fill="#fff" fill-rule="evenodd"/><path d="m42.32 42.05c29.43-29.18 67.37-46.42 81.93-31.73 14.55 14.69-.88 50.39-30.31 79.56s-66.9 47.36-81.45 32.67c-14.56-14.68.4-51.33 29.83-80.5z" clip-rule="evenodd" fill="url(#j)" fill-rule="evenodd"/><path d="m41 197.4 22.86-75.72 75.92 24.39c-27.45 25.74-57.98 47.5-98.78 51.33z" clip-rule="evenodd" fill="url(#k)" fill-rule="evenodd"/><path d="m120.6 68.89 19.49 77.2c22.93-24.11 43.51-50.03 53.59-82.09l-73.08 4.89z" clip-rule="evenodd" fill="url(#l)" fill-rule="evenodd"/><path d="m193.4 64.39c7.8-23.54 9.6-57.31-27.18-63.58l-30.18 16.67 57.36 46.91z" clip-rule="evenodd" fill="url(#m)" fill-rule="evenodd"/><path d="m0 157.8c1.08 38.85 29.11 39.43 41.05 39.77l-27.58-64.41-13.47 24.64z" clip-rule="evenodd" fill="#9e1209" fill-rule="evenodd"/><path d="m120.7 69.01c17.62 10.83 53.13 32.58 53.85 32.98 1.119.63 15.31-23.93 18.53-37.81l-72.38 4.83z" clip-rule="evenodd" fill="url(#n)" fill-rule="evenodd"/><path d="m63.83 121.7 30.56 58.96c18.07-9.8 32.22-21.74 45.18-34.53l-75.74-24.43z" clip-rule="evenodd" fill="url(#o)" fill-rule="evenodd"/><path d="m13.35 133.2-4.33 51.56c8.17 11.16 19.41 12.13 31.2 11.26-8.53-21.23-25.57-63.68-26.87-62.82z" clip-rule="evenodd" fill="url(#p)" fill-rule="evenodd"/><path d="M135.9 17.61l60.71 8.52C193.37 12.4 183.42 3.54 166.46.77L135.9 17.61z" clip-rule="evenodd" fill="url(#q)" fill-rule="evenodd"/></svg>
