<svg width="256" height="256" version="1.1" viewBox="0 0 67.73 67.73" xmlns="http://www.w3.org/2000/svg"><defs><linearGradient id="a" x2="1" gradientTransform="matrix(3.308 -11.06 9.362 3.828 -123.2 -79.15)" gradientUnits="userSpaceOnUse"><stop stop-color="#ff9700" offset="0"/><stop stop-color="#f48e00" offset=".53"/><stop stop-color="#ce6e00" offset="1"/></linearGradient></defs><path d="M65.11 67.733H2.624A2.634 2.634 0 010 65.11V2.623A2.634 2.634 0 012.623 0H65.11a2.634 2.634 0 012.622 2.623v62.502a2.63 2.63 0 01-2.622 2.608z" fill="#404040"/><path transform="translate(159.1 130.3)" d="m-105.9-96.26c0-.588-.435-.927-.969-.759l-36.69 11.64c-.535.17-.968.784-.968 1.371v11.9c0 .588.433.929.968.759l36.69-11.64c.534-.17.968-.785.968-1.373z" clip-rule="evenodd" fill="url(#a)" fill-rule="evenodd"/><path d="m52.41 8.774a.937.937 0 00-.195.04l-36.69 11.64c-.625.323-.898.76-.969 1.373v11.81c.021.595.467 1.202.969 1.373l36.7 11.64c.534.17.967-.17.967-.758v-11.9c0-.587-.433-1.202-.967-1.371l-15.43-4.893 15.42-4.89c.534-.17.968-.786.968-1.373v-11.89c0-.515-.332-.84-.773-.8z" clip-rule="evenodd" fill="#ff9800" fill-rule="evenodd"/></svg>
