<svg version="1.1" viewBox="0 0 256 256" xmlns="http://www.w3.org/2000/svg"><path d="m20.3 59.8a128 128 0 00-5.11 8.8c-13.3 24.9-17.6 53.7-13 81.2h70.6z" fill="#0f9d58" paint-order="stroke fill markers"/><path d="m242 69.5c-18.6-36.6-55.8-62.8-96.5-68-40.6-5.78-83.4 9.56-111 39.8-5.29 5.7-10 11.9-14.2 18.5 19.1 32.6 38 65.4 57.1 97.9 17-29.4 34-58.8 50.9-88.3z" fill="#db4437"/><path d="m128 69.5v80.3h126c4.73-27.3.088-55.7-12.5-80.3z" fill="#ffcd40" paint-order="stroke fill markers"/><ellipse cx="128" cy="128" rx="58.9" ry="58.8" fill="#f1f1f1"/><ellipse cx="128" cy="128" rx="47.1" ry="47" fill="#4285f4"/><path d="m242 69.5a128 128 0 00-.093-.181 128 128 0 00-.444-.848 128 128 0 00-.25-.464h-113v.05c-32.5 0-58.9 26.3-58.9 58.8v1.44c0-32.5 26.3-58.8 58.9-58.8z" fill="#3e2723" fill-opacity=".2"/><path d="m20.3 59.8a128 128 0 00-.308.488 128 128 0 00-.133.214l57.6 98.7h.05c10.2 17.6 29.1 29.4 50.9 29.4 21.8 0 40.7-11.8 50.9-29.4h.05v-1.49h-.1v.052c-10.2 17.6-29.1 29.4-50.9 29.4-21.8 0-40.7-11.8-50.9-29.4h-.05z" fill="#fff" fill-opacity=".1"/><path d="m130 69.5c-.249 0-.498.05-.747.05 32.2.398 58.1 26.5 58.1 58.8 0 32.3-25.9 58.4-58.1 58.8.25 0 .498.05.747.05 32.5 0 58.9-26.3 58.9-58.8 0-32.5-26.4-58.8-58.9-58.8z" fill="#3e2723" opacity=".1"/><path d="m2.2 150c6.6 40.6 34.2 77 71.5 94.3 36.9 17.8 82.4 16 118-4.46 33-18.5 56.8-52.4 62.9-89.8h-252z" fill="#424242"/><path d="m88 211v-35.6h10.9c5.48 0 9.86 1.64 13.1 4.93s4.93 7.62 4.93 12.8c0 5.28-1.64 9.56-4.93 12.8-3.29 3.29-7.67 4.98-13.1 4.98h-10.9zm4.58-4.38h6.32c4.13 0 7.37-1.2 9.81-3.54 2.44-2.34 3.58-5.68 3.58-9.91 0-4.23-1.2-7.52-3.58-9.86-2.39-2.34-5.68-3.54-9.81-3.54h-6.32zm39.3 5.18c-3.68 0-6.67-1.24-8.96-3.68-2.29-2.44-3.48-5.58-3.48-9.31 0-3.53 1.1-6.62 3.34-9.16 2.24-2.54 5.13-3.83 8.61-3.83 3.64 0 6.52 1.19 8.66 3.53s3.29 5.53 3.29 9.46l-.05.846h-19.3c.15 2.44.947 4.38 2.49 5.82 1.49 1.44 3.29 2.14 5.28 2.14 3.29 0 5.53-1.39 6.67-4.18l4.08 1.69c-.797 1.89-2.09 3.48-3.93 4.78-1.84 1.24-4.08 1.89-6.72 1.89zm6.57-15.9c-.1-1.39-.747-2.74-1.94-3.98-1.2-1.24-2.94-1.89-5.23-1.89-1.69 0-3.14.548-4.38 1.59-1.24 1.05-2.09 2.49-2.59 4.28zm15.8 15.1-9.86-24.4h4.98l7.17 18.9h.1l7.27-18.9h4.88l-9.96 24.4z" fill="#fff"/></svg>
