<svg version="1.1" viewBox="0 0 283 285.2" xmlns="http://www.w3.org/2000/svg"><defs><filter id="c" x="-.05718" y="-.05717" width="1.114" height="1.123" color-interpolation-filters="sRGB"><feFlood flood-color="rgb(0,0,0)" flood-opacity=".5608" result="flood"/><feComposite in="flood" in2="SourceGraphic" operator="in" result="composite1"/><feGaussianBlur in="composite1" result="blur" stdDeviation="6"/><feOffset dx="0" dy="2.1" result="offset"/><feComposite in="SourceGraphic" in2="offset" result="composite2"/></filter></defs><linearGradient id="a" x2="1" gradientTransform="matrix(0 247.9 -247.9 0 120 17.84)" gradientUnits="userSpaceOnUse"><stop stop-color="#fefefe" offset="0"/><stop stop-color="#fefefe" offset=".3981"/><stop stop-color="#d5d6d7" offset=".6505"/><stop stop-color="#9c9ea1" offset="1"/></linearGradient><linearGradient id="b" x2="1" gradientTransform="matrix(0 219.2 -219.2 0 184.2 32.46)" gradientUnits="userSpaceOnUse"><stop stop-color="#9c9ea1" offset="0"/><stop stop-color="#fff" offset=".7"/><stop stop-color="#fefefe" offset="1"/></linearGradient><path d="m138 15.64c-28.41.7442-56.49 11.44-78.06 29.97-18.65 15.88-32.61 37.25-39.39 60.81-8.028 27.7-6.26 58.17 5.169 84.67 9.175 21.34 24.37 40.02 43.36 53.39 20.49 14.46 45.37 22.7 70.46 22.98 26.54.3781 53.13-7.886 74.74-23.31 19.83-14.03 35.45-33.93 44.33-56.54 7.176-18.06 10.11-37.8 8.344-57.16-1.953-22.32-9.975-44.08-23.09-62.25-12.98-18.12-30.83-32.73-51.24-41.7-17.11-7.587-35.91-11.31-54.62-10.85zm4.428 34.31c2.147.04339 4.039.1824 6.168.4848 11.36 1.611 22 7.117 30.27 15.01 4.861 4.53 9.12 9.769 12.66 15.27 4.198 6.521 7.531 13.57 10.05 20.86 1.125 3.238 2.093 6.5 2.946 9.86 4.471 17.74 4.877 36.62 1.308 54.61-1.25 6.299-3.01 12.64-5.325 18.64-4.182 10.9-10.22 21.17-18.2 29.73-6.549 6.993-14.67 12.79-23.78 16.02-5.312 1.899-11.12 2.902-16.82 2.817-6.405-.0527-12.92-1.443-18.85-4.003-6.627-2.814-12.68-6.963-17.78-11.98-2.177-2.132-4.172-4.423-6.024-6.887-1.418-1.913-2.916-3.998-4.227-6.008-5.57-8.462-9.992-17.6-13.17-27.22-1.686-5.101-2.994-10.26-3.951-15.59-.849-4.725-1.418-9.674-1.649-14.46-.9976-20.12 3.411-40.63 12.94-58.47 4.696-8.811 10.47-17.13 17.65-24.11 3.405-3.181 7.332-5.977 11.36-8.158 6.739-3.638 14.25-5.894 21.9-6.348.7358-.04281 1.704-.07465 2.521-.08398z" filter="url(#c)" stroke-width="1.08"/><path d="m236 227.6c-16.98 13.04-37.4 19.39-58.35 20.2-54.78 2.104-100.2-47.6-100.2-106.3-6.8e-5-58.72 44.86-106.3 100.2-106.3 20.74.01091 40.96 6.849 57.88 19.57-24.22-26.24-58.31-41.17-94.02-41.18-70.69-7.8e-5-128 57.31-128 128-8.3e-5 70.69 57.31 128 128 128 35.99-.0712 70.29-15.29 94.49-41.93" fill="url(#a)" stroke-width=".7524"/><path d="m177.7 35.15c-27.74 6.8e-5-52.85 11.97-70.99 31.3 10.51-9.702 22.82-14.91 35.42-14.98 35.69.000542 64.63 40.37 64.63 90.16.00016 49.79-28.93 90.16-64.63 90.16-13.12-.0648-25.92-5.7-36.69-16.16 18.32 20.57 44.04 33.26 72.26 32.17 20.95-.8046 41.37-7.154 58.35-20.2 21.49-23.52 33.44-54.21 33.51-86.07-.009-32.18-12.14-63.18-33.98-86.82-16.92-12.72-37.14-19.56-57.88-19.57z" fill="url(#b)" stroke-width=".7524"/><path d="m141.5 13.54c-70.69-7.5e-5-128 57.31-128 128-4.5e-5 36.65 15.45 69.66 40.14 92.99.2173.2424.3982.3943 1.001.9153 9.282 8.585 19.84 15.79 31.35 21.35.254.1293.3573.1798.5769.2774 1.299.6243 2.574 1.291 3.899 1.868 10.26 4.466 21.22 7.605 32.66 9.258.1457.0293.2206.0305.3599.0497 5.887.8339 11.89 1.299 18.01 1.299h.00075c6.963-.0137 13.86-.6097 20.64-1.731.5752-.1082 1.171-.2206 1.782-.3359 11.48-2.067 22.58-5.687 33.01-10.73.6647-.3076.7319-.3497 1.208-.5843 2.14-1.062 4.262-2.162 6.341-3.344 11.64-6.617 22.3-15.07 31.49-25.19l.005-.003.016-.0171v-.00075c21.49-23.52 33.44-54.21 33.51-86.07v-.00075c-.009-32.18-12.14-63.18-33.98-86.82l-.0171-.01813-.003-.0023c-7.458-8.075-15.86-15.07-24.94-20.9-15.71-10.07-33.5-16.6-52.12-19.09-5.586-.7475-11.24-1.171-16.94-1.173zm0 .5459c3.633.000753 7.243.1933 10.83.5012-6.368.03815-12.61.6726-18.69 1.808-1.982-.6228-4.076-1.12-6.288-1.484 4.649-.5143 9.359-.8253 14.14-.8253zm-15.37 1.169c2.253.3159 4.367.7882 6.382 1.37-9.776 1.937-19.12 5.231-27.87 9.709-4.113-.7777-7.644-1.311-11.38-1.208 5.278-2.736 10.77-5.114 16.49-7.053 5.054-1.295 10.28-2.279 15.56-2.948l.8188.1306zm26.83-.1401c1.816.00015 3.633.04838 5.447.1439v-.000753c1.348.1812 2.69.3881 4.027.6148l2.299.6733c2.366.6896 5.449 2.503 8.589 5.131-3.365-.3728-6.751-.5642-10.15-.5662-5.798 7e-6-11.48.5474-17.03 1.562-3.39-2.428-7.156-4.471-11.44-5.939 5.947-1.053 12.04-1.619 18.26-1.619zm13.54 1.529c11.68 2.341 22.95 6.295 33.48 11.75l-.1354.2335c-8.215-3.442-16.76-5.741-25.47-6.805-2.765-2.418-5.507-4.178-7.871-5.174zm-32.9.3082c4.442 1.409 8.331 3.429 11.82 5.87-9.236 1.766-18.06 4.884-26.32 9.17-4.28-2.375-8.834-4.283-13.65-5.465 8.843-4.462 18.28-7.716 28.16-9.575zm-30.37 2.989c-3.864 1.562-7.612 3.336-11.26 5.273-1.018.04417-2.037.09955-3.07.2122 4.636-2.103 9.418-3.941 14.33-5.485zm59.95 1.716c3.663.0023 7.311.2511 10.94.6835 3.725 3.282 7.444 7.731 10.11 13.06-5.771-.3379-12.13-.2902-17.26.3007-5.235.5548-9.884 1.64-14.52 2.771-1.603.4389-3.191.9197-4.762 1.44-1.84.6562-3.624 1.235-5.236 1.917-2.012.7839-6.068 2.654-6.75 2.98-4.647-4.734-10.09-9.102-16.04-12.49 8.278-4.257 17.11-7.345 26.36-9.061 5.228 3.784 9.563 8.495 13.52 13.47l.4265-.3401c-3.874-4.873-8.145-9.5-13.26-13.27 5.366-.954 10.86-1.459 16.46-1.459zm11.93.7816c8.836 1.15 17.5 3.608 25.81 7.23 2.355 1.897 4.219 5.198 5.537 10.01-7.57-2.342-14.1-3.668-21.57-4.225-2.57-5.244-6.135-9.683-9.773-13.02zm-71.25 4.292c-8.662 4.52-16.74 10.18-24.05 16.84-4.315-.6265-8.51-.5994-12.67-.2037 7.541-6.885 15.92-12.83 24.99-17.66 3.942-.1766 8.235.2887 11.73 1.023zm-12.98-.9447c-8.9 4.842-17.07 10.82-24.48 17.65-2.508.2723-5.099.7012-7.789 1.31 8.684-7.442 18.44-13.77 28.92-18.68m17.16.8303c4.885 1.131 9.517 2.997 13.86 5.373-8.262 4.351-15.96 9.845-22.91 16.35-4.759-2.405-9.77-4.096-15.17-4.928 7.363-6.659 15.5-12.31 24.22-16.79zm95.55 1.624c.9586.499 1.927.9798 2.873 1.503-.6168-.2846-1.245-.5316-1.866-.8029-.3249-.2601-.6626-.4881-1.007-.7006zm2.189 1.808c2.459 1.121 4.898 2.308 7.285 3.64 8.371 5.317 16.17 11.62 23.19 18.85-8.009-5.632-16.71-9.96-25.8-12.94-1.128-4.275-2.69-7.432-4.669-9.546zm-83.3 2.258c5.996 3.367 11.41 7.701 16.1 12.46-.4008.1981-.8312.3892-1.221.5886-4.311 2.197-8.921 5.072-12.61 7.71-.0329.02378-.0641.04989-.0971.07366-3.137 2.278-6.234 4.865-9.136 7.512l.3519-.3903c-5.27-4.757-10.65-8.693-16.36-11.65 6.966-6.499 14.69-11.98 22.97-16.31zm56.71 3.086c2.592-.03235 5.152.05192 7.77.2218.489.1704.9681.3629 1.453.5417-4.466 1.116-8.873 2.54-13.06 4.405-5.007-1.32-10.18-2.02-15.49-2.02h-.006c-1.284.0313-2.567.1097-3.848.2239.0446-.01716.0876-.03755.1322-.05433 1.975-.5648 4.043-1.046 5.901-1.429 3.098-.6124 6.23-1.099 9.18-1.413 2.752-.2953 5.378-.4443 7.971-.4766zm9.564.3071c.3407.02874.676.09351 1.016.1258-.1366.03228-.2729.06644-.4095.09913-.2016-.07634-.4044-.15-.6067-.225zm2.545.3156c4.153.3597 8.624 1.219 12.46 2.174.003.000549.005.000752.008.0023 2.479.6208 4.933 1.342 7.359 2.161.003.000745.008.0023.0108.003.01.003.0184.0076.0278.01084 2.415.8173 4.8 1.732 7.151 2.743.005.000752.009.003.0127.0053.007.003.0126.0068.0192.0097 1.612.6938 3.183 1.494 4.76 2.278-1.981-.08368-3.957-.1168-5.917-.03318-2.781.1189-5.529.4537-8.26.8829-5.816-4.03-12.05-7.4-18.66-9.987.3424-.0798.6831-.1728 1.026-.2495zm-1.973.4798c6.67 2.542 12.98 5.86 18.86 9.879-4.403.737-8.736 1.824-12.97 3.255-5.946-3.963-12.33-6.969-19.04-8.836 4.219-1.824 8.656-3.21 13.15-4.298zm-29.47 2.592c5.014-3.8e-5 9.911.6465 14.66 1.839-3.882 1.797-7.529 4.024-10.82 6.77-5.608-1.671-11.45-2.583-17.46-2.583h-.0015c-.147.000745-.2934.01934-.4404.02137 2.504-2.267 5.305-4.191 8.372-5.606 1.895-.2301 3.795-.3959 5.698-.4425zm-7.479.739c-2.716 1.44-5.222 3.246-7.463 5.351-2.366.06621-4.725.2794-7.075.6249 4.654-2.385 9.517-4.374 14.54-5.976zm23.02 1.307c6.742 1.8 13.16 4.77 19.14 8.705-4.663 1.616-9.194 3.637-13.59 5.919-5.218-3.405-10.79-6.071-16.62-7.878 3.366-2.754 7.105-4.963 11.08-6.746zm-92.77 2.635c-8.287 7.637-15.59 16.53-21.65 26.43-2.129-.1908-4.289-.2886-6.468-.274-2.18.01467-4.383.1838-6.59.4372 6.132-9.891 13.51-18.88 21.95-26.69 4.442-.4744 8.645-.4275 12.76.1013zm-21.49 1.408c.000294-.000248-.00015-.000534-.000225-.000745 2.641-.6228 5.46-1.102 7.922-1.401h-1.5e-5c-8.366 7.823-15.67 16.79-21.75 26.66-3.272.41-6.554 1.09-9.816 2.121 6.554-10.22 14.53-19.43 23.64-27.37m22.17-1.316c5.448.7868 10.49 2.449 15.28 4.855-7.687 7.267-14.46 15.74-20.09 25.16-5.223-1.697-10.95-3.018-16.95-3.606 6.095-9.9 13.43-18.79 21.75-26.41zm62.91 1.8c5.835-3e-5 11.51.8697 16.96 2.462-1.698 1.46-3.325 3.022-4.794 4.799-4.193-1.189-8.534-1.816-12.98-1.816h-.00075c-1.754.0097-3.498.1556-5.236.3636 1.463-2.067 3.113-4.011 4.95-5.756.3661-.0087.731-.05109 1.097-.05335zm-1.9.09168c-1.814 1.78-3.462 3.732-4.901 5.82-8.526 1.162-16.8 4.647-24.35 10.28 6.458-6.042 13.67-11.19 21.43-15.33 2.592-.4434 5.201-.6756 7.815-.7752zm75.87.1045c1.199-.003 2.401.02573 3.607.08962.0765-.0045.2856.01339.5342.04898.3618.1619.6899.3251.997.4788 2.272 1.202 4.504 2.496 6.691 3.883.00076.000745.003.000745.005.0023.0154.0097.0303.02107.0459.03085 2.184 1.387 4.323 2.866 6.411 4.435l.00074.000753c3.252 3.521 6.259 7.225 9.07 11.05-4.851-.8903-9.734-1.405-14.61-1.508-1.442-.03047-2.883.0053-4.323.04153-5.652-6.764-12.04-12.74-19.1-17.72 3.519-.5285 7.079-.831 10.67-.8413zm-11.41.9735c7.068 4.922 13.47 10.87 19.13 17.59-4.966.1617-9.905.7366-14.79 1.662-5.165-6.325-10.99-11.74-17.33-16.05 4.242-1.411 8.573-2.497 12.98-3.203zm-44.97 1.475c5.814 1.764 11.36 4.382 16.56 7.745-2.356 1.238-4.683 2.529-6.95 3.917-4.548-3.045-9.395-5.362-14.46-6.865 1.486-1.775 3.125-3.343 4.845-4.796zm-64.71.675c5.716 2.944 11.09 6.909 16.39 11.69-1.981 1.807-3.887 3.638-5.592 5.433-.004.0053-.0108.01076-.016.01595-.00076.000745-.003.0023-.004.003-.004.0053-.01.0087-.0139.01392l.002.0023c-18 19.18-29.14 45.6-29.21 74.77h-19.84c.05192-11.62 1.568-22.84 4.327-33.46 8.533 1.41 15.4 3.227 19.39 4.317l.1429-.5268c-3.997-1.09-10.84-2.925-19.4-4.341 3.075-11.63 7.643-22.52 13.48-32.37 7.413 2.445 13.76 5.619 18.24 8.433l.29-.4626c-4.495-2.822-10.83-6.003-18.23-8.46 5.621-9.391 12.38-17.83 20.05-25.06zm96.05 1.277c6.344 4.268 12.18 9.64 17.36 15.94-5.095.9995-10.11 2.396-15.02 4.182-4.809-5.59-10.19-10.39-16.03-14.28 4.427-2.28 8.995-4.25 13.68-5.848zm-49.75 1.394c17.71.000301 33.75 10.01 45.38 26.24 11.63 16.23 18.84 38.67 18.84 63.46 8e-5 24.79-7.205 47.23-18.84 63.46-11.63 16.23-27.67 26.24-45.38 26.24-13.01-.0643-25.71-5.65-36.41-16.04-17.16-19.26-27.81-45.47-27.81-73.81-3e-5-29.15 11.1-55.53 29.06-74.67 10.44-9.642 22.66-14.8 35.16-14.87zm35.49 4.74c5.84 3.849 11.24 8.622 16.06 14.19-2.858 1.06-5.686 2.217-8.45 3.533-4.38-5.456-9.256-10.16-14.59-13.81 2.28-1.39 4.617-2.684 6.984-3.92zm52.02 8.525c5.034.1062 10.07.6296 15.07 1.579 5.257 7.25 9.74 14.99 13.34 23.11-5.789-.6435-11.6-.9854-17.42-1.141-4.026-8.548-9.028-16.42-14.84-23.48 1.279-.02581 2.556-.1027 3.837-.0757zm-4.534.08962c5.84 7.031 10.86 14.9 14.91 23.44-1.626-.03822-3.252-.1421-4.878-.1376-3.804.01084-7.602.1829-11.39.4447-3.35-7.42-7.385-14.25-12.01-20.31-.4838-.6334-.99-1.238-1.486-1.854 4.907-.9147 9.869-1.45 14.86-1.588zm-15.47 1.698c.5574.688 1.122 1.367 1.663 2.076 4.567 5.978 8.555 12.71 11.87 20.03-5.252.3811-10.48 1.002-15.68 1.923-3.578-7.345-7.924-14.02-12.89-19.88 4.909-1.778 9.931-3.162 15.03-4.147zm-158.4 3.773c2.062-.01264 4.097.1051 6.115.2783-6.326 10.43-11.27 21.97-14.59 34.28-1.334-.038-2.646-.1024-4.015-.0981-3.061.01-6.207.1413-9.407.402 3.402-12.25 8.459-23.82 14.93-34.38 2.331-.2838 4.658-.4636 6.962-.4777zm6.713.3327c6.005.5671 11.76 1.865 17 3.556-5.836 9.878-10.41 20.79-13.48 32.44-5.436-.8794-11.55-1.55-18.14-1.766 3.326-12.3 8.283-23.82 14.62-34.23zm-14.27.2143c-6.436 10.56-11.46 22.11-14.85 34.34-3.266.2809-6.594.716-9.954 1.318 3.36-11.95 8.4-23.19 14.88-33.44 3.291-1.085 6.61-1.787 9.92-2.225zm150.4.01813c4.959 5.817 9.297 12.46 12.87 19.78-3.405.6177-6.797 1.34-10.16 2.214-2.548-5.583-5.475-10.8-8.816-15.46-.7559-1.055-1.581-2.007-2.374-3.009 2.774-1.316 5.611-2.464 8.479-3.521zm41.09 17.82c1.708-.0053 3.417.05034 5.126.09275 3.694 7.89 6.584 16.31 8.53 25.13-4.56-.0801-9.121-.1356-13.68-.1216-1.083.003-2.164.0442-3.247.0533-1.801-8.765-4.476-17.06-7.89-24.72 3.714-.2519 7.435-.4236 11.16-.434zm5.744.1045c5.81.1634 11.62.5636 17.41 1.215 3.43 7.833 6.05 16.01 7.849 24.39-5.59-.2209-11.18-.3771-16.78-.4798-1.935-8.81-4.804-17.23-8.476-25.13zm-17.49.37c3.422 7.648 6.103 15.93 7.911 24.69-5.192.0484-10.38.1692-15.57.3625-1.864-8.213-4.555-15.98-7.987-23.13 5.184-.9129 10.4-1.545 15.65-1.919zm-16.21 2.016c3.432 7.121 6.126 14.87 7.993 23.06-3.714.1423-7.428.2799-11.14.5054-1.672-7.618-4.092-14.76-7.067-21.38 3.382-.8753 6.791-1.575 10.21-2.191zm-168.5 14.13c1.314-.004 2.603.0245 3.886.0597-2.979 11.23-4.61 23.09-4.641 35.37h-13.67c.1315-12.06 1.799-23.82 4.857-35.02 3.256-.2711 6.455-.403 9.568-.4127zm4.446.0693c6.616.2094 12.67.9325 18.13 1.815-2.763 10.65-4.28 21.9-4.332 33.55h-18.45c.03085-12.28 1.668-24.14 4.655-35.36zm-14.51.3839c-3.045 11.2-4.776 22.92-4.907 34.98h-9.66c.03108-11.65 1.641-22.93 4.601-33.65 3.365-.6114 6.694-1.044 9.966-1.331zm206.4 8.574c4.606-.0141 9.213.042 13.82.1237 1.819 8.427 2.777 17.2 2.811 26.17-5.734.0151-11.47.0306-17.2.0459 2e-4-.0958.005-.1899.005-.2858-5e-5-8.987-.8966-17.7-2.564-26 1.044-.009 2.087-.0479 3.131-.0512zm-3.687.0608c1.674 8.297 2.575 17 2.575 25.99 0 .0962-.005.1907-.005.2868-5.105.0135-10.21.027-15.32.0405 2e-5-.0311.002-.0616.002-.0927 0-8.966-.998-17.63-2.825-25.87 5.187-.1922 10.38-.312 15.57-.3593zm18.06.0671c5.591.1034 11.18.2604 16.77.482 1.759 8.377 2.702 16.96 2.738 25.64-5.568.0147-11.14.03-16.7.0447-.0333-8.965-.9905-17.73-2.801-26.16zm-34.18.3167c1.831 8.219 2.832 16.88 2.832 25.84 0 .0318-.002.0631-.002.0949-3.757.01-7.513.0199-11.27.0299-.0299-8.849-.9862-17.39-2.719-25.46 3.717-.2254 7.438-.3646 11.16-.5065zm53.7 26.35c-.022 8.787-.9827 17.48-2.77 25.96-5.552.007-11.11.0368-16.67.08 1.77-8.381 2.718-17.09 2.733-25.99 5.568-.0147 11.14-.0301 16.7-.0447zm-17.25.0459c-.0147 8.906-.964 17.62-2.741 25.99-5.736.0435-11.47.0573-17.2.00075 1.718-8.281 2.663-16.97 2.718-25.95 5.741-.0152 11.48-.0307 17.22-.0459zm-17.77.047c-.0554 8.974-1.005 17.66-2.729 25.94-5.157-.0556-10.31-.1581-15.46-.402 1.821-8.115 2.826-16.66 2.872-25.5 5.105-.0135 10.21-.027 15.32-.0405zm-15.86.0427c-.0463 8.83-1.054 17.37-2.879 25.47-3.639-.1785-7.275-.3979-10.91-.7144 1.614-7.864 2.53-16.14 2.538-24.72 3.749-.01 7.498-.0199 11.25-.03zm-204 .0224h9.649c-.000753.2644-.0146.5265-.0149.7912v.00075c.02701 11.08 1.414 21.93 3.942 32.37-3.342-.2053-6.564-.4941-9.339-.9206l-.01708-.0832c-2.694-10.28-4.203-21.04-4.22-32.16zm10.2 0h13.68c.01543 11.55 1.454 22.73 4.088 33.36-4.896.1414-9.523.0812-13.81-.1632-2.539-10.45-3.946-21.31-3.973-32.41.000376-.2644.01415-.526.01595-.7901zm14.22 0h18.44c-8e-6.0248-.0023.0489-.0023.0735-7e-6 11.02 1.326 21.69 3.763 31.83-6.173.7778-12.27 1.252-18.11 1.437-2.64-10.62-4.081-21.8-4.097-33.34zm18.99 0h19.85c.02272 9.712 1.31 19.16 3.656 28.18-6.386 1.614-13.08 2.795-19.75 3.655-2.435-10.12-3.761-20.76-3.761-31.76 0-.0248.0023-.0489.0023-.0735zm146.7 25.27c3.624.3166 7.253.5363 10.88.7155-1.938 8.415-4.764 16.35-8.351 23.62-3.235-.6106-6.446-1.349-9.604-2.344 3.018-6.795 5.426-14.16 7.072-21.99zm11.44.7422c5.15.2456 10.31.3486 15.46.4052-1.895 8.899-4.676 17.31-8.238 25.04-5.239-.2654-10.44-.8116-15.57-1.748 3.588-7.304 6.411-15.26 8.347-23.7zm50.44.3338c-1.812 8.414-4.445 16.62-7.899 24.47-3.565.3479-7.141.5802-10.72.7326-2.139.0382-4.299.0546-6.451.0875 3.655-7.925 6.512-16.37 8.42-25.21 5.553-.043 11.11-.0718 16.65-.08zm-34.42.0811c5.738.0573 11.47.0444 17.21.00075-1.918 8.847-4.795 17.3-8.471 25.22-5.644.0819-11.3.1017-16.94-.1642 3.549-7.743 6.322-16.16 8.208-25.06zm-150.5 2.283c4.543 17.12 12.95 32.64 24.15 45.21.004.005.01.01.0139.0149 8.401 9.378 18.29 17.11 29.41 22.7-5.326 4.38-10.68 8.683-16.76 12.04-8.469-4.568-16.31-10.39-23.36-17.23 5.978-2.886 11.56-6.738 16.74-11.15l-.354-.4158c-5.211 4.437-10.81 8.296-16.8 11.17-7.521-7.378-14.11-15.93-19.56-25.43 7.786-2.506 14.4-5.73 18.57-8.207l-.2783-.4692c-4.149 2.465-10.78 5.689-18.57 8.187-5.677-9.997-10.08-21.01-12.96-32.75 6.67-.8631 13.36-2.047 19.75-3.663zm-20.3 3.73c2.879 11.77 7.286 22.81 12.97 32.84-2.357.7408-4.803 1.423-7.33 1.985-3.071.6838-6.244 1.182-9.45 1.47-6.269-10.62-11.12-22.34-14.29-34.85 5.834-.1893 11.93-.6656 18.1-1.446zm-42.36.3773c2.79.422 5.968.7001 9.311.9021 2.984 12.11 7.558 23.63 13.55 34.25-3.081-.6473-6.104-1.598-8.998-2.979l-.39-.2179c-5.868-9.875-10.43-20.6-13.47-31.96zm9.893.9362c4.294.2406 8.924.2967 13.82.1525 3.154 12.51 7.993 24.24 14.24 34.88-4.822.3899-9.704.2299-14.46-.6963-6.031-10.64-10.6-22.2-13.6-34.33zm168.6 14.01c3.148.9947 6.347 1.731 9.567 2.345-3.644 7.285-8.032 13.91-13.05 19.68-2.62-.9935-5.207-2.078-7.731-3.324.7362-.9368 1.507-1.822 2.212-2.804 3.428-4.782 6.416-10.15 9.007-15.9zm10.12 2.454c5.138.9474 10.34 1.508 15.58 1.781-3.213 6.875-7.028 13.21-11.36 18.88-.8335 1.091-1.689 2.154-2.559 3.195-5.009-.9533-9.933-2.308-14.72-4.088 5.026-5.801 9.416-12.46 13.06-19.77zm50.9 1.162c-3.584 8.046-8.029 15.71-13.24 22.9l-3.007.3402-.007.00075c-5.219.8188-10.49 1.174-15.76 1.142 5.808-7.085 10.8-15 14.82-23.58 2.249-.0339 4.508-.053 6.74-.0928h.006c3.488-.1484 6.973-.3826 10.45-.7155zm-34.72.6408c5.637.2728 11.28.2559 16.91.1759-4.036 8.578-9.051 16.48-14.89 23.55-5.348-.0708-10.67-.5977-15.92-1.561.808-.9725 1.607-1.958 2.383-2.974 4.398-5.757 8.27-12.2 11.52-19.19zm-190.8 13.6c2.984 1.388 6.089 2.342 9.253 2.971 5.524 9.668 12.21 18.57 19.93 26.47-2.244-.4938-4.53-1.152-6.858-1.983-8.656-8.053-16.18-17.29-22.33-27.46zm41.63.1504c5.45 9.519 12.05 18.1 19.57 25.51-4.776 2.234-9.803 3.83-15.11 4.542-8.142-7.705-15.3-16.64-21.22-26.56 3.145-.296 6.253-.7941 9.262-1.464 2.583-.5752 5.084-1.272 7.488-2.03zm111.3 1.139c2.508 1.242 5.078 2.325 7.681 3.319-4.831 5.469-10.23 10.15-16.06 13.9-2.01-1.113-3.98-2.294-5.899-3.548 5.215-3.644 9.985-8.294 14.28-13.67zm-143.1 1.788c4.759.88 9.631 1.017 14.43.6088 5.9 9.933 13.03 18.89 21.15 26.62-4.898.5872-10.03.424-15.39-.6654-7.815-7.914-14.61-16.84-20.19-26.56zm151.3 1.728c4.783 1.791 9.7 3.157 14.7 4.127-5.288 6.234-11.23 11.52-17.68 15.67-4.503-1.575-8.881-3.514-13.08-5.8 5.832-3.795 11.23-8.5 16.06-14zm15.33 4.241c5.237.978 10.55 1.518 15.88 1.612-5.634 6.727-11.99 12.69-19.03 17.63-4.933-.6835-9.787-1.86-14.51-3.47 6.441-4.2 12.38-9.511 17.65-15.77zm35.35.2143c-2.687 3.664-5.555 7.213-8.646 10.6-4.154 3.2-8.801 6.128-13.2 8.46-.0224.0117-.0437.0255-.0662.0373-.002.00075-.005.002-.007.003-.3087.1498-.5889.262-.8946.4084-5.004.4429-9.994.2643-14.93-.3668 7.01-4.984 13.35-10.97 18.96-17.72 5.436.0571 10.88-.2892 16.27-1.133l1.585-.1791zm-133.8 3.511c7.878 6.209 16.61 10.03 25.62 11.27 1.301 1.674 2.744 3.218 4.26 4.689-3.98-.2351-7.94-.8565-11.84-1.886-6.482-3.955-12.55-8.66-18.04-14.07zm60.15 2.537c1.904 1.25 3.858 2.432 5.853 3.544-5.202 3.286-10.75 5.825-16.55 7.522-1.343-1.233-2.622-2.545-3.762-4.019 5.067-1.562 9.912-3.94 14.45-7.047zm6.416 3.834c4.179 2.294 8.541 4.246 13.03 5.841-6.129 3.861-12.71 6.666-19.61 8.304-3.655-1.7-7.042-3.846-10.03-6.488 5.828-1.74 11.39-4.327 16.61-7.657zm56.42 3.01c-8.737 9.152-18.7 16.86-29.52 22.97-1.137.546-2.29 1.04-3.441 1.54 2.826-3.07 4.43-6.625 5.88-10.94l-.2676-.0895c5.347-1.663 10.56-3.762 15.58-6.337.0108-.00075.0213-8e-5.032-.00075l-.00075-.0127c4.048-2.079 7.977-4.442 11.74-7.137zm-77.85.3817c1.123 1.472 2.376 2.788 3.695 4.023-5.273 1.482-10.75 2.289-16.37 2.289-.574-.009-1.147-.0555-1.72-.0811-1.529-1.443-2.977-2.968-4.293-4.613 1.725.204 3.456.3465 5.197.3551h.001c4.628-7e-5 9.138-.6888 13.49-1.974zm35.12 2.667c4.701 1.627 9.53 2.82 14.44 3.539-5.721 3.948-11.89 7.184-18.37 9.73-5.241-1.122-10.57-2.61-15.52-4.812 6.842-1.71 13.37-4.575 19.45-8.457zm-96.64.8626c7.037 6.859 14.86 12.71 23.31 17.31-4.107 2.209-8.568 3.955-13.57 5.007-8.967-4.718-17.28-10.7-24.77-17.71 5.272-.7573 10.28-2.365 15.03-4.604zm65.72.9192c2.933 2.645 6.26 4.78 9.835 6.498-4.254.9485-8.618 1.47-13.08 1.47-2.808-.01-5.608-.2577-8.394-.6654-2.233-1.478-4.328-3.144-6.304-4.943.3553.0119.7097.0446 1.065.0501h.004c5.803 3e-5 11.44-.8508 16.87-2.41zm-29.82.7688c3.637.8558 7.316 1.374 11.01 1.55 1.885 1.763 3.901 3.374 6.028 4.839-3.056-.5073-6.087-1.269-9.081-2.252-2.715-1.254-5.374-2.624-7.96-4.137zm-74.26.5865c2.26.7572 4.491 1.392 6.673 1.834 7.171 7.216 15.17 13.61 23.96 18.91-.0053-.00054-.0091-.00054-.01392-.00075-11.23-5.404-21.51-12.44-30.62-20.74zm150.2.5214c4.694.6356 9.445.8299 14.22.5054-9.297 4.357-17.43 7.195-27.07 8.924-.00076.00032-.003.00046-.005.00075-1.425.2535-2.868.4126-4.305.6099-.3494-.0692-.7039-.1537-1.055-.2261 6.435-2.592 12.55-5.849 18.22-9.814zm-142.8 1.43c5.318.999 10.41 1.115 15.27.4862 7.451 7.018 15.71 13.01 24.63 17.77-4.618.8895-9.711 1.167-15.43.6376-8.954-5.287-17.18-11.61-24.47-18.89zm71.8.8146c.7733.3868 1.536.7924 2.321 1.158 5.141 2.405 10.92 4.354 15.91 5.615.0578.0302.1117.0682.1695.0981l.0256-.0501c.8088.2009 1.615.4205 2.427.5982.9506.2097 1.912.3594 2.868.5363-3.327 4.641-7.924 9.689-13.73 13.71-9.258-1.841-18.1-5.038-26.36-9.427 6.029-3.371 11.35-7.642 16.61-11.96zm6.893 2.496c2.036.5203 4.09.9029 6.15 1.209 1.066.7024 2.17 1.336 3.279 1.966-3.204-.8964-6.36-1.929-9.429-3.175zm28.58.2666c4.941 2.278 10.27 3.812 15.52 4.97-.5068.1925-.9914.432-1.502.6153-2.257.22-4.52.4032-6.793.4905-7.927.2682-15.8-.5041-23.39-2.331-.2889-.0698-.5683-.1672-.8562-.2399-1.418-.7419-2.804-1.55-4.16-2.406 2.445.3117 4.898.5228 7.36.531h.00076c4.722 5e-5 9.337-.5791 13.83-1.63zm35.4 1.875c-1.587 4.681-3.355 8.38-6.709 11.56-8.2 3.407-16.73 5.649-25.4 6.671 5.881-4.836 8.337-9.659 10.77-13.79l-.2794-.1653c.3557-.0341.7153-.0393 1.071-.0768 1.198-.1251 2.384-.3146 3.575-.4777.1177-.0146.2668-.0374.3828-.0533 5.628-.7904 11.18-2.005 16.59-3.668zm-18.94 3.298c.1279.0272.2561.0553.3839.0821-.2992.0368-.595.0924-.8946.1269.1721-.0658.3392-.142.5108-.209zm-28.02.0554c6.237 1.139 12.58 1.626 18.81 1.394 2.098-.0805 4.186-.2568 6.27-.4521-2.51 4.271-4.975 9.138-11.17 14.02-3.15.3388-6.315.5393-9.49.5545-6.007-3e-5-11.89-.6-17.62-1.694 5.7-4.036 10.24-9.017 13.52-13.6zm-40.86 4.57c8.242 4.415 17.07 7.644 26.3 9.535-3.386 2.266-7.175 4.165-11.35 5.44-9.936-1.945-19.43-5.29-28.3-9.87 4.912-1.109 9.299-2.895 13.35-5.105zm79.89 4.694c-10.12 5.021-20.92 8.595-32.06 10.78 2.803-1.506 5.173-3.029 7.129-4.558 8.498-.9346 16.87-3.022 24.94-6.225zm-94.07.5768c8.796 4.604 18.21 8.001 28.06 10.02-2.652.7283-5.454 1.203-8.409 1.353-11.44-1.636-22.4-4.762-32.65-9.22-.000549-.00038-.0015-.00048-.0023-.00075-.7306-.4015-1.419-.8628-2.14-1.278 5.598.4204 10.6.0675 15.15-.8776zm41.24 4.42c5.916 1.16 11.99 1.8 18.2 1.8h.00075c2.909-.0139 5.811-.1689 8.699-.4553-2.168 1.618-4.83 3.23-8.015 4.823-.658.119-1.303.2901-1.963.3988-2.972.3616-5.955.5979-8.943.7016-6.473-.00043-12.81-.6245-18.99-1.765 4.046-1.344 7.728-3.25 11.01-5.503zm-12.05 5.838c6.186 1.2 12.53 1.885 19.02 1.947-3.463.2923-6.942.4835-10.45.4905-5.277 0-10.47-.3597-15.57-.9853 2.445-.2792 4.777-.7789 7.003-1.452z" fill="#666" stroke-width="1.08"/></svg>
