<svg version="1.1" viewBox="0 0 256 193" xmlns="http://www.w3.org/2000/svg" xmlns:xlink="http://www.w3.org/1999/xlink"><defs><linearGradient id="c" x1="101.7" x2="169.3" y1="173.7" y2="210.6" gradientTransform="matrix(3.78 0 0 3.78 2.558e-5 -31.5)" gradientUnits="userSpaceOnUse"><stop stop-color="#4c4c4c" offset="0"/><stop stop-color="#333" offset="1"/></linearGradient><linearGradient id="d" x1="133.3" x2="155.7" y1="206.5" y2="206.5" gradientTransform="matrix(3.78 0 0 3.78 2.558e-5 -31.5)" gradientUnits="userSpaceOnUse"><stop stop-color="#e2e2e2" offset="0"/><stop stop-color="#cfcfcf" offset="1"/></linearGradient></defs><path d="m2.515e-5 32.43v150.2a10.36 10.37 0 0010.38 10.39l235.2.0151a10.36 10.37 0 0010.38-10.39v-10.52h.008v-139.7z" fill="url(#c)"/><path d="m88.59-2e-7h84.11v32.61h-84.11z" fill="#999"/><path d="m10.38.02275 78.21-.02275v32.62l-88.59-.182v-22.02a10.36 10.37 0 0110.38-10.39z" fill="#ccc"/><path d="m245.6.02275-72.93-.02275v32.61l83.3-.1821.004-22.02a10.36 10.37 0 00-10.38-10.39z" fill="#666"/><path d="m124.6 144.3c-2.77 0-5 2.231-5 5v14.66c0 2.769 2.23 4.998 5 4.998h74.97c2.77 0 5-2.229 5-4.998v-14.66c0-2.769-2.23-5-5-5h-74.97z" fill="url(#d)"/><path d="m85.59 95.62c-1.277 0-2.553.489-3.531 1.469l-49.22 49.29c-1.957 1.96-1.957 5.115 0 7.074l11.98 12c1.957 1.96 5.109 1.96 7.066 0l49.22-49.29c1.957-1.96 1.957-5.115 0-7.074l-11.98-12c-.9785-.9798-2.256-1.469-3.533-1.469z" fill="#a4a4a4"/><path d="m44.81 59.8-11.98 12c-1.957 1.96-1.957 5.115 0 7.074l49.22 49.28c1.957 1.96 5.109 1.96 7.066 0l11.98-11.99c1.957-1.96 1.957-5.115 0-7.074l-49.22-49.29c-2.185-1.85-5.191-1.82-7.064 0z" fill="url(#d)" stroke-width="3.79" style="paint-order:stroke fill markers"/></svg>
