<svg width="256" height="256" version="1.1" viewBox="0 0 67.733 67.733" xmlns="http://www.w3.org/2000/svg"><path d="M50.806 52.699L36.5 38.357c-.053-.053-.11-.1-.165-.149v5.471c.494.244.962.57 1.374.982a5.2 5.2 0 010 7.35 5.193 5.193 0 01-7.345 0 5.194 5.194 0 010-7.35c.5-.503 1.081-.88 1.7-1.133v-6.262a4.411 4.411 0 00-1.8 1.091L16.506 52.12l14.327 14.336c1.702 1.717 4.526 1.683 6.216.017z" fill="#ffe680"/><path d="M36.967 1.311a4.451 4.451 0 00-6.31 0l-6.076 6.077 7.795 7.8a5.18 5.18 0 015.334 1.241 5.194 5.194 0 011.232 5.368l2.57 2.57 9.253-9.255zM21.56 10.41l-4.832 4.833 13.798 13.8c.454.454.979.789 1.538 1.007v-5.137a5.2 5.2 0 01-2.821-6.815zm14.775 14.825v4.241c.175-.13.342-.274.501-.432l1.653-1.654z" fill="#ff8080" style="font-variation-settings:normal"/><path d="m52.462 16.806-9.256 9.258 3.249 3.25a5.178 5.178 0 015.366 1.233 5.19 5.19 0 010 7.346 5.191 5.191 0 01-7.347 0 5.198 5.198 0 01-1.13-5.65l-3.158-3.158-1.565 1.565c-1.733 1.717-1.69 4.573 0 6.27l13.987 13.99 13.842-13.841c1.734-1.718 1.69-4.574 0-6.272l-13.987-13.99z" fill="#8dd35f"/><path d="M28.68 30.535a4.4 4.4 0 010 6.237L14.92 50.536 1.295 36.913a4.4 4.4 0 010-6.237L15.06 16.912z" fill="#80b3ff" style="font-variation-settings:normal"/></svg>
