<svg width="2207" height="2500" version="1.1" viewBox="-2.147 -3.553e-15 61.18 71.73" xmlns="http://www.w3.org/2000/svg"><linearGradient id="a" x1="42.66" x2="42.66" y1="50.35" y2="20.14" gradientUnits="userSpaceOnUse"><stop stop-color="#0052cc" offset=".18"/><stop stop-color="#2684ff" offset="1"/></linearGradient><path d="m56.88 28.44a28.44 28.44 0 00-28.44-28.44 28.43 28.43 0 00-8.8 55.48v14.25a2 2 0 002 2h13.5a2 2 0 002-2v-14.23a28.45 28.45 0 0019.76-27.07zm-28.44 9.6a9.6 9.6 0 110-19.22 9.6 9.6 0 010 19.23z" fill="#2684ff"/><path d="m28.44 0v18.83a9.6 9.6 0 010 19.23 8.8 8.8 0 018.8 8.8v8.64a28.44 28.44 0 00-8.81-55.5z" fill="url(#a)"/></svg>
