<svg version="1.1" viewBox="0 0 128 128" xmlns="http://www.w3.org/2000/svg" xmlns:xlink="http://www.w3.org/1999/xlink"><defs><circle id="b" cx="64" cy="64" r="56"/><filter id="a" x="-.04286" y="-.04286" width="1.086" height="1.104"><feMorphology in="SourceAlpha" operator="dilate" radius="1" result="shadowSpreadOuter1"/><feOffset dy="2" in="shadowSpreadOuter1" result="shadowOffsetOuter1"/><feGaussianBlur in="shadowOffsetOuter1" result="shadowBlurOuter1" stdDeviation="2"/><feComposite in="shadowBlurOuter1" in2="SourceAlpha" operator="out" result="shadowBlurOuter1"/><feColorMatrix in="shadowBlurOuter1" values="0 0 0 0 0 0 0 0 0 0 0 0 0 0 0 0 0 0 0.240942029 0"/></filter><linearGradient id="c" x1="50%" x2="50%" y2="100%"><stop stop-color="#FEFEFE" offset="0"/><stop stop-color="#E0E0E0" offset="1"/></linearGradient><linearGradient id="g" x1="50%" x2="50%" y1="100%"><stop stop-color="#492779" offset="0"/><stop stop-color="#892793" offset="1"/></linearGradient><path id="e" d="m12 64.03c0 23.02 14.88 42.47 35.56 49.37 2.6.456 3.575-1.105 3.575-2.47 0-1.237-.065-5.334-.065-9.692-13.06 2.405-16.44-3.189-17.48-6.115-.585-1.496-3.12-6.114-5.33-7.35-1.82-.976-4.42-3.382-.065-3.447 4.095-.065 7.02 3.772 7.995 5.333 4.68 7.87 12.16 5.66 15.14 4.293.455-3.382 1.82-5.66 3.315-6.96-11.57-1.3-23.66-5.788-23.66-25.69 0-5.66 2.015-10.34 5.33-13.98-.52-1.3-2.34-6.634.52-13.79 0 0 4.355-1.365 14.3 5.334 4.16-1.17 8.58-1.756 13-1.756s8.84.586 13 1.756c9.945-6.764 14.3-5.333 14.3-5.333 2.86 7.154 1.04 12.49.52 13.79 3.315 3.642 5.33 8.26 5.33 13.98 0 19.97-12.16 24.39-23.72 25.69 1.885 1.626 3.51 4.748 3.51 9.626 0 6.96-.065 12.55-.065 14.31 0 1.365.975 2.99 3.575 2.47 20.54-6.892 35.42-26.4 35.42-49.36 0-28.75-23.27-52.04-52-52.04s-52 23.28-52 52.03z"/><filter id="f" x="0" y="0" width="1" height="1.01"><feOffset dy="1" in="SourceAlpha" result="shadowOffsetOuter1"/><feColorMatrix in="shadowOffsetOuter1" values="0 0 0 0 1 0 0 0 0 1 0 0 0 0 1 0 0 0 0.529296875 0"/></filter><filter id="h" x="-.02308" y="-.02365" width="1.046" height="1.047"><feGaussianBlur in="SourceAlpha" result="shadowBlurInner1" stdDeviation="1"/><feOffset in="shadowBlurInner1" result="shadowOffsetInner1"/><feComposite in="shadowOffsetInner1" in2="SourceAlpha" k2="-1" k3="1" operator="arithmetic" result="shadowInnerInner1"/><feColorMatrix in="shadowInnerInner1" values="0 0 0 0 0.258823529 0 0 0 0 0.137254902 0 0 0 0 0.431372549 0 0 0 0.703549592 0"/></filter></defs><g fill="none" fill-rule="evenodd"><path d="M0 0h128v128H0z"/><use fill="#000" filter="url(#a)" xlink:href="#b"/><use fill="#FFF" fill-opacity="0" stroke="#BABABA" stroke-opacity=".5" stroke-width="2" xlink:href="#b"/><circle cx="64" cy="64" r="56" fill="url(#c)"/><use fill="#000" filter="url(#f)" xlink:href="#e"/><use fill="url(#g)" xlink:href="#e"/><use fill="#000" filter="url(#h)" xlink:href="#e"/></g></svg>
