<svg width="256" height="256" version="1.1" viewBox="0 0 67.73 67.73" xmlns="http://www.w3.org/2000/svg"><path d="M6.32 0h55.094c3.5 0 6.32 2.797 6.32 6.27v55.193c0 3.474-2.82 6.27-6.32 6.27H6.32c-3.5 0-6.319-2.796-6.319-6.27V6.27C0 2.797 2.818 0 6.32 0z" fill="#fb7a24"/><path d="m33.88 43.46c-.191 1.169-.325 2.226-.745 3.2-1.967 4.564-5.318 7.345-10.34 7.898-5.94.654-11.42-3.01-13.07-8.704-.597-2.063-.537-4.166-.32-6.265.23-2.244.892-4.372 1.924-6.379.147-.287.144-.504-.04-.781-1.585-2.384-2.2-5.017-1.976-7.859.119-1.519.487-2.972 1.176-4.332 2.019-3.987 6.45-7.37 12.39-6.808 5.22.493 10.05 4.995 10.81 10.06.038.254.11.503.193.878.125-.679.215-1.24.332-1.794.972-4.6 5.475-9.413 11.86-9.473 6.469-.06 11.26 5.014 12.16 9.726.382 1.991.315 3.98 0 5.969-.3116 1.979-.9011 3.903-1.751 5.717-.188.401-.169.69.072 1.063 1.393 2.159 2.008 4.53 1.93 7.103-.166 5.37-3.964 10.19-9.19 11.45-7.296 1.758-12.89-2.605-14.77-7.884-.307-.859-.452-1.756-.633-2.78zm13.26-9.436c.078-.304.313-.486.482-.71 1.83-2.431 2.791-5.147 2.577-8.204-.157-2.232-1.992-3.804-4.214-3.72-2.223.082-3.899 1.797-3.93 4.022-.002.182.009.364-.003.545-.153 2.371-1.46 3.67-3.443 3.815-.362.027-.725.059-1.088.06-2.573.006-5.145.005-7.718.002-1.124-.001-2.238.12-3.308.451-4.995 1.542-7.908 4.957-8.873 10.05-.19 1.007-.363 2.052-.032 3.087.473 1.484 1.357 2.588 2.92 2.957 3.166.3213 4.997-1.298 5.162-4.188.14-2.76 1.643-4.14 4.15-4.12 3.846.032 7.693.007 11.54.01.683 0 .689.01.692.685.007 1.247-.032 2.496.016 3.742.079 2.034 1.868 3.724 3.943 3.784 2.139.06 4.046-1.521 4.185-3.587.12-1.787.112-3.586-.005-5.375-.4009-2.044-1.473-2.711-3.052-3.305zm-21.93-4.193c.335.005.459-.139.456-.467-.011-1.297.056-2.6-.027-3.892-.11-1.706-1.016-2.939-2.604-3.56-3.798-.9795-6.214 1.984-5.37 5.232.406 1.486 1.368 2.33 2.88 2.585 1.578.1706 3.192.07951 4.665.102z" fill="#fff"/></svg>
