<svg width="256" height="256" version="1.1" viewBox="0 0 67.733 67.733" xmlns="http://www.w3.org/2000/svg"><defs><linearGradient id="e" x1="426.932" x2="425.283" y1="212.902" y2="539.225" gradientUnits="userSpaceOnUse"><stop stop-color="#4dbe00" offset="0"/><stop stop-color="#348300" offset="1"/></linearGradient><linearGradient id="f" x1="425.283" x2="425.283" y1="1007.65" y2="550.768" gradientUnits="userSpaceOnUse"><stop stop-color="#d4d4d4" offset="0"/><stop stop-color="#f7f7f7" offset="1"/></linearGradient><linearGradient id="d" x1="425.109" x2="424.432" y1="-4.195" y2="543.367" gradientUnits="userSpaceOnUse"><stop stop-color="#389301" offset="0"/><stop stop-color="#226000" offset="1"/></linearGradient></defs><path transform="matrix(.0616 0 0 .06156 7.673 .258)" d="M425.11-4.195a549.853 550.16 0 00-549.68 550.158H975.137A549.853 550.16 0 00425.283-4.195a549.853 550.16 0 00-.174 0z" fill="url(#d)" opacity=".999"/><path d="M67.733 33.867H0a33.867 33.867 0 0033.867 33.866 33.867 33.867 0 0033.866-33.866z" fill="#97a097" opacity=".999"/><path transform="matrix(.0616 0 0 .06156 7.673 .258)" d="M425.283 84.28A461.426 461.683 0 00-36.143 545.962H886.71A461.426 461.683 0 00425.283 84.279z" fill="url(#e)" opacity=".999"/><path transform="matrix(.0616 0 0 .06156 7.673 .258)" d="M886.709 545.963H-36.143a461.426 461.683 0 00461.426 461.683A461.426 461.683 0 00886.71 545.963z" fill="url(#f)" opacity=".999"/><path d="m40.414 18.77c-1.026.306-1.86.892-2.489.906-.63.014-1.16-.462-1.99-.78-.829-.318-2.795-.564-3.236-.567-.44-.002-1.159 0-1.657 0s-2.253.108-3.8.811c-1.545.703-1.685 3.124-1.986 3.115-.302-.008-.421-2.571-2.032-3.162-1.61-.59-3.254-.713-3.78-.713h-1.656c-.525 0-2.628.215-3.69.726-1.062.51-2.132 1.742-2.157 6.454-.026 4.712-.05 12.216-.05 16.471s.802 6.588 1.864 7.098c1.444.592 3.16.918 4.95.919 1.305 0 3.565-.226 4.748-.88 1.74-1.188 1.527-3 1.816-2.997.263.003.418 1.926 1.309 2.68.89.754 2.668 1.203 5.785 1.258 3.116.055 3.292-.756 4.674-.731 1.382.024 1.752.348 3.058.649 1.305.3 8.468 1.412 13.171-2.022 4.704-3.435 4.14-11.078 3.103-14.184-1.038-3.107-1.577-2.062-1.59-3.078s.982-1.832 1.051-4.645c.069-2.814.215-4.652-1.636-6.012-1.852-1.36-6.14-2.069-8.584-2.011-2.444.057-4.17.388-5.196.694z" fill="#fff" fill-opacity=".49"/><path d="M33.856 0a33.867 33.867 0 00-20.068 6.594 24.17 24.17 0 00-.111 1.797c-.027 4.185 4.948 6.765 6.335 7.398 1.386.633 1.817 1.127 7.993 2.925 6.176 1.799 18.588 1.52 24.417.638 5.543-.84 9.94-2.908 10.363-3.111A33.867 33.867 0 0033.867 0a33.867 33.867 0 00-.011 0z" fill="#fff" fill-opacity=".293" opacity=".999"/><path d="M45.847 22.323c-.106.002-.212.005-.318.01-2.378.146-5.043.907-6.39 3.028-1.2 2.098-1.283 4.886-.027 6.979 1.406 2.187 3.99 3.064 6.243 4.09 1.19.563 2.579 1.401 2.654 2.867.188 1.66-1.466 2.887-2.974 3.034-1.665.108-3.374-.268-4.866-1.01-.66-.333-1.933-1.607-2.195-.233-.06 1.13-.479 2.56.522 3.413.807.498 1.696.89 2.611 1.146 3.081.71 6.645.595 9.215-1.453 2.32-1.744 3.02-5.052 2.095-7.72-.639-2.043-2.625-3.179-4.431-4.06-1.41-.754-3.061-1.138-4.242-2.265-1.263-1.117-.823-3.475.799-3.996 1.852-.572 3.844.074 5.464 1 .766.791 1.692.145 1.495-.857-.066-.87.233-1.937-.462-2.62-1.343-1.11-3.2-1.26-4.874-1.352a9.538 9.538 0 00-.319 0zm-28.06.318c-.877 0-1.583.34-1.583.762v21.608c0 .422.706.762 1.584.762h1.657c.877 0 1.583-.34 1.583-.762v-9.24h8.43v9.24c0 .422.707.762 1.584.762H32.7c.877 0 1.584-.34 1.584-.762V23.403c0-.422-.707-.762-1.584-.762h-1.657c-.877 0-1.584.34-1.584.762v8.384h-8.43v-8.384c0-.422-.706-.762-1.583-.762z"/></svg>
