<?xml version="1.0" encoding="UTF-8" standalone="no"?><svg xmlns:dc="http://purl.org/dc/elements/1.1/" xmlns:cc="http://creativecommons.org/ns#" xmlns:rdf="http://www.w3.org/1999/02/22-rdf-syntax-ns#" xmlns:svg="http://www.w3.org/2000/svg" xmlns="http://www.w3.org/2000/svg" xmlns:sodipodi="http://sodipodi.sourceforge.net/DTD/sodipodi-0.dtd" xmlns:inkscape="http://www.inkscape.org/namespaces/inkscape" width="256" height="256" viewBox="0 0 67.733332 67.733335" version="1.1"><path style="fill:#00adef;stroke-width:0.77471542" d="M 31.027623,5.31561 C 43.244753,3.45089 55.485148,1.6945 67.725549,0 c 0.0078,10.70085 0,21.39396 0.0078,32.0948 -12.232644,0.0464 -24.465282,0.23212 -36.705682,0.27081 -0.0078,-9.02183 -0.0078,-18.03591 0,-27.05 z" id="path11099" inkscape:connector-curvature="0" /><path style="fill:#00adef;stroke-width:0.77471542" d="M 1.238152e-6,9.63308 C 9.1996899,8.21714 18.438939,6.99463 27.677418,5.84175 c 0.0078,8.87482 0.0078,17.74189 0.01554,26.61671 C 18.462236,32.45046 9.2307434,32.59 2.7255629e-5,32.56678 Z" id="path11097" inkscape:connector-curvature="0" /><path style="fill:#00adef;stroke-width:0.77471542" d="M 1.238152e-6,35.35999 C 9.2237374,35.32904 18.445925,35.47605 27.668884,35.46058 c 0,8.89803 0.02325,17.79605 0.0085,26.69408 C 18.462193,60.7921 9.2307002,59.60131 -1.6024956e-5,58.35559 Z" id="path11095" inkscape:connector-curvature="0" /><path style="fill:#00adef;stroke-width:0.77471542" d="m 30.973325,35.71591 h 36.752224 c 0.01554,10.66989 0,21.33979 0,32.01743 C 55.508418,65.9073 43.268023,64.21281 31.027623,62.55778 31.012083,53.61255 30.988843,44.6681 30.973303,35.71591 Z" id="path11076" inkscape:connector-curvature="0" /><path inkscape:connector-curvature="0" id="path11145" d="m 48.611328,27.71187 -1.61914,3.88671 a 0.40901626,0.40901626 0 0 1 -0.363282,0.25 c -1.251537,0.0396 -2.385664,0.27223 -3.558594,0.58985 a 0.40901626,0.40901626 0 0 1 -0.412109,-0.1211 l -2.761719,-3.08789 -5.701172,3.47461 1.63086,3.84375 a 0.40901626,0.40901626 0 0 1 -0.07031,0.43164 c -0.798196,0.90284 -1.530318,1.89781 -2.121093,3.00391 a 0.40901626,0.40901626 0 0 1 -0.394532,0.21484 l -4.1875,-0.34375 -1.505859,6.45118 3.896484,1.61718 a 0.40901626,0.40901626 0 0 1 0.251953,0.36328 c 0.0397,1.24799 0.273252,2.37886 0.591797,3.54883 a 0.40901626,0.40901626 0 0 1 -0.125,0.41406 l -3.191406,2.81446 3.498047,5.60742 3.943359,-1.61328 a 0.40901626,0.40901626 0 0 1 0.423829,0.0723 c 0.904906,0.79611 1.902616,1.52582 3.011718,2.11524 a 0.40901626,0.40901626 0 0 1 0.216797,0.38672 l -0.25,4.12109 6.474609,1.50391 1.621094,-3.88867 a 0.40901626,0.40901626 0 0 1 0.357422,-0.25 c 1.177324,-0.0581 2.399806,-0.27455 3.564453,-0.58985 a 0.40901626,0.40901626 0 0 1 0.414063,0.12305 l 2.822265,3.18555 5.623047,-3.48829 -1.617187,-3.93164 a 0.40901626,0.40901626 0 0 1 0.07227,-0.42773 c 0.803849,-0.90924 1.512985,-1.82157 2.101563,-2.92383 a 0.40901626,0.40901626 0 0 1 0.392578,-0.21484 l 4.107422,0.32422 1.507812,-6.45118 -3.896484,-1.61523 A 0.40901626,0.40901626 0 0 1 63.10743,46.74511 C 63.06757,45.49256 62.850364,44.27743 62.519539,43.208 a 0.40901626,0.40901626 0 0 1 0.123047,-0.43164 l 3.169922,-2.73242 -3.484375,-5.6875 -3.923828,1.53711 a 0.40901626,0.40901626 0 0 1 -0.417969,-0.0742 c -0.904932,-0.79614 -1.909323,-1.53053 -2.939453,-2.10156 a 0.40901626,0.40901626 0 0 1 -0.208984,-0.38282 l 0.25,-4.11914 z m -0.982422,11.74414 c 0.532774,0.0138 1.070497,0.0808 1.605469,0.20507 4.279554,0.99431 7.055339,5.33145 6.039063,9.6836 -1.015063,4.34696 -5.348466,7.0376 -9.705079,6.02539 -4.356571,-1.01219 -7.056108,-5.33846 -6.041015,-9.68555 0.762216,-3.26416 3.432111,-5.57918 6.52539,-6.11328 0.515607,-0.089 1.043399,-0.12906 1.576172,-0.11523 z" style="fill:#eaeaea;fill-opacity:1;stroke:#000000;stroke-width:0.5291667;stroke-linejoin:round;stroke-miterlimit:4;stroke-dasharray:none;stroke-opacity:1" /></svg>