<?xml version="1.0" encoding="UTF-8" standalone="no"?>
<svg
   xmlns:dc="http://purl.org/dc/elements/1.1/"
   xmlns:cc="http://creativecommons.org/ns#"
   xmlns:rdf="http://www.w3.org/1999/02/22-rdf-syntax-ns#"
   xmlns:svg="http://www.w3.org/2000/svg"
   xmlns="http://www.w3.org/2000/svg"
   xmlns:sodipodi="http://sodipodi.sourceforge.net/DTD/sodipodi-0.dtd"
   xmlns:inkscape="http://www.inkscape.org/namespaces/inkscape"
   width="256"
   height="256"
   viewBox="0 0 67.733332 67.733335"
   version="1.1"
   id="svg2151"
   inkscape:version="1.0.2 (e86c870, 2021-01-15)"
   sodipodi:docname="sublimeTextLogo.svg">
  <defs
     id="defs2145">
    <linearGradient
       gradientTransform="matrix(3.3078771,-11.063217,9.3622984,3.827611,-123.22869,-79.149573)"
       gradientUnits="userSpaceOnUse"
       y2="0"
       x2="1"
       y1="0"
       x1="0"
       id="_Linear1">
      <stop
         id="stop36"
         style="stop-color:#ff9700;stop-opacity:1"
         offset="0" />
      <stop
         id="stop38"
         style="stop-color:#f48e00;stop-opacity:1"
         offset="0.53" />
      <stop
         id="stop40"
         style="stop-color:#ce6e00;stop-opacity:1"
         offset="1" />
    </linearGradient>
  </defs>
  <sodipodi:namedview
     inkscape:zoom="0.64"
     inkscape:cx="-272.70435"
     inkscape:cy="218.30121"
     inkscape:window-width="1920"
     inkscape:window-height="1137"
     inkscape:window-x="-8"
     inkscape:window-y="-8"
     inkscape:window-maximized="1"
     inkscape:current-layer="svg2151" />
  <g
     id="g2824"
     transform="translate(159.0697,130.26951)">
    <path
       d="m -93.958987,-62.536177 h -62.488093 c -1.44017,0 -2.62262,-1.182718 -2.62262,-2.623207 V -127.6463 c 0,-1.44049 1.18245,-2.62321 2.62262,-2.62321 h 62.488093 c 1.440167,0 2.62262,1.18272 2.62262,2.62321 v 62.50208 c -0.01516,1.440489 -1.182453,2.608043 -2.62262,2.608043 z"
       fill="#4d4d4e"
       id="path2719"
       style="fill:#404040;fill-opacity:1;stroke-width:0.151613" />
    <path
       id="path26"
       style="clip-rule:evenodd;fill:url(#_Linear1);fill-rule:evenodd;stroke-width:1.07331;stroke-linejoin:round;stroke-miterlimit:1.41421"
       d="m -105.89064,-96.254713 c 0,-0.588241 -0.43464,-0.927445 -0.96802,-0.758916 l -36.69349,11.638148 c -0.53445,0.169603 -0.96802,0.784679 -0.96802,1.371846 v 11.894698 c 0,0.58824 0.43357,0.928519 0.96802,0.758916 l 36.69349,-11.637074 c 0.53338,-0.169602 0.96802,-0.78468 0.96802,-1.37292 z" />
    <path
       id="path28"
       style="clip-rule:evenodd;fill:#ff9800;fill-rule:evenodd;stroke-width:1.07331;stroke-linejoin:round;stroke-miterlimit:1.41421"
       d="m -106.66362,-121.49587 c -0.0629,0.006 -0.12824,0.0192 -0.1949,0.0404 l -36.69368,11.63718 c -0.6249,0.3223 -0.89709,0.75986 -0.96833,1.37271 v 11.812324 c 0.0211,0.59461 0.46672,1.202014 0.96833,1.372718 l 36.6992,11.638755 c 0.53447,0.1696 0.96751,-0.170521 0.96751,-0.75769 v -11.895543 c 0,-0.587167 -0.43304,-1.202322 -0.96751,-1.371923 l -15.42611,-4.892481 15.42059,-4.89089 c 0.53337,-0.1696 0.96747,-0.78476 0.96747,-1.37192 v -11.89476 c 0,-0.5147 -0.33202,-0.83934 -0.77257,-0.7989 z"
       sodipodi:nodetypes="sccccccsscccssss" />
  </g>
  <metadata
     id="metadata2832">
    <rdf:RDF>
      <cc:Work
         rdf:about="">
        <dc:title></dc:title>
      </cc:Work>
    </rdf:RDF>
  </metadata>
</svg>
