<?xml version="1.0" encoding="UTF-8" standalone="no"?>
<svg
   xmlns:svg="http://www.w3.org/2000/svg"
   xmlns="http://www.w3.org/2000/svg"
   xmlns:sodipodi="http://sodipodi.sourceforge.net/DTD/sodipodi-0.dtd"
   xmlns:inkscape="http://www.inkscape.org/namespaces/inkscape"
   viewBox="0 0 256 256"
   fill="none"
   version="1.1"
   id="svg243"
   sodipodi:docname="vscodeLogo.svg"
   inkscape:version="1.0.2-2 (e86c870879, 2021-01-15)">
  <sodipodi:namedview
     pagecolor="#ffffff"
     bordercolor="#666666"
     borderopacity="1"
     objecttolerance="10"
     gridtolerance="10"
     guidetolerance="10"
     inkscape:pageopacity="0"
     inkscape:pageshadow="2"
     inkscape:window-width="1920"
     inkscape:window-height="1106"
     id="namedview245"
     showgrid="false"
     showguides="true"
     inkscape:guide-bbox="true"
     inkscape:zoom="2.8710938"
     inkscape:cx="133.84421"
     inkscape:cy="78.035957"
     inkscape:window-x="-11"
     inkscape:window-y="-11"
     inkscape:window-maximized="1"
     inkscape:current-layer="svg243" />
  <path
     d="M 194.193,2.24138 C 188.088,-0.698302 180.791,0.541721 175.999,5.33332 L 3.32371,162.773 c -4.64453,4.235 -4.63919,11.547 0.01152,15.775 L 17.4399,191.37 c 3.8022,3.457 9.5283,3.711 13.622,0.606 L 239.003,34.2269 Z"
     fill="#0065a9"
     id="path190"
     style="display:inline"
     sodipodi:nodetypes="cccccccc" />
  <path
     d="m 194.193,253.759 c -6.105,2.939 -13.402,1.699 -18.194,-3.092 L 3.32371,93.2272 C -1.32082,88.9925 -1.31548,81.6802 3.33523,77.4523 L 17.4399,64.6298 c 3.8022,-3.4565 9.5283,-3.711 13.622,-0.6053 l 163.19558,123.80361 z"
     fill="#007acc"
     id="path192"
     style="display:inline;filter:url(#filter0_d)"
     sodipodi:nodetypes="cccccccc" />
  <path
     d="m 194.196,253.763 c -6.107,2.937 -13.404,1.696 -18.196,-3.096 5.904,5.904 16,1.722 16,-6.628 V 11.9606 c 0,-8.35003 -10.096,-12.531775 -16,-6.62739 4.792,-4.792044 12.089,-6.033817 18.196,-3.09673 l 52.738,25.36202 c 5.542,2.665 9.066,8.2701 9.066,14.4193 V 213.983 c 0,6.149 -3.524,11.754 -9.066,14.419 z"
     fill="#1f9cf0"
     id="path196"
     style="display:inline;filter:url(#filter1_d)" />
  <path
     fill-rule="evenodd"
     clip-rule="evenodd"
     d="m 181.378,254.252 c 4.032,1.57 8.63,1.47 12.699,-0.488 l 52.706,-25.362 c 5.539,-2.665 9.061,-8.27 9.061,-14.419 V 42.0179 c 0,-6.1492 -3.522,-11.7543 -9.06,-14.4193 L 194.077,2.23665 c -5.34,-2.569949 -11.591,-1.940473 -16.279,1.46736 -0.669,0.48682 -1.307,1.03036 -1.906,1.62936 L 74.9927,97.386 31.0429,64.0245 C 26.9517,60.9189 21.229,61.1734 17.4292,64.6298 L 3.33311,77.4523 c -4.64789,4.228 -4.65322,11.5402 -0.01151,15.775 L 41.4364,128 3.3216,162.773 c -4.64171,4.235 -4.63638,11.547 0.01151,15.775 L 17.4292,191.37 c 3.7998,3.457 9.5225,3.711 13.6137,0.606 l 43.9498,-33.362 100.8993,92.053 c 1.596,1.597 3.471,2.8 5.486,3.585 z M 191.883,69.8851 115.323,128 l 76.56,58.115 z"
     fill="url(#paint0_linear)"
     id="path200"
     style="display:inline;opacity:0.25;mix-blend-mode:overlay;fill:url(#paint0_linear)" />
  <defs
     id="defs241">
    <filter
       id="filter0_d"
       x="-21.4896"
       y="40.5225"
       width="298.822"
       height="236.149"
       filterUnits="userSpaceOnUse"
       color-interpolation-filters="sRGB">
      <feFlood
         flood-opacity="0"
         result="BackgroundImageFix"
         id="feFlood206" />
      <feColorMatrix
         in="SourceAlpha"
         type="matrix"
         values="0 0 0 0 0 0 0 0 0 0 0 0 0 0 0 0 0 0 127 0"
         id="feColorMatrix208" />
      <feOffset
         id="feOffset210" />
      <feGaussianBlur
         stdDeviation="10.6667"
         id="feGaussianBlur212" />
      <feColorMatrix
         type="matrix"
         values="0 0 0 0 0 0 0 0 0 0 0 0 0 0 0 0 0 0 0.25 0"
         id="feColorMatrix214" />
      <feBlend
         mode="overlay"
         in2="BackgroundImageFix"
         result="effect1_dropShadow"
         id="feBlend216" />
      <feBlend
         mode="normal"
         in="SourceGraphic"
         in2="effect1_dropShadow"
         result="shape"
         id="feBlend218" />
    </filter>
    <filter
       id="filter1_d"
       x="154.667"
       y="-20.6735"
       width="122.667"
       height="297.347"
       filterUnits="userSpaceOnUse"
       color-interpolation-filters="sRGB">
      <feFlood
         flood-opacity="0"
         result="BackgroundImageFix"
         id="feFlood221" />
      <feColorMatrix
         in="SourceAlpha"
         type="matrix"
         values="0 0 0 0 0 0 0 0 0 0 0 0 0 0 0 0 0 0 127 0"
         id="feColorMatrix223" />
      <feOffset
         id="feOffset225" />
      <feGaussianBlur
         stdDeviation="10.6667"
         id="feGaussianBlur227" />
      <feColorMatrix
         type="matrix"
         values="0 0 0 0 0 0 0 0 0 0 0 0 0 0 0 0 0 0 0.25 0"
         id="feColorMatrix229" />
      <feBlend
         mode="overlay"
         in2="BackgroundImageFix"
         result="effect1_dropShadow"
         id="feBlend231" />
      <feBlend
         mode="normal"
         in="SourceGraphic"
         in2="effect1_dropShadow"
         result="shape"
         id="feBlend233" />
    </filter>
  </defs>
</svg>
