<svg xmlns="http://www.w3.org/2000/svg" width="256" height="256"><path d="M20.305 59.846a127.57 127.57 0 00-5.106 8.797C1.857 93.562-2.439 122.344 2.195 149.81h70.557z" fill="#0f9d58" paint-order="stroke fill markers"/><path d="M242.048 69.511c-18.605-36.555-55.81-62.76-96.494-67.973-40.58-5.783-83.384 9.559-111.041 39.814-5.29 5.705-10.043 11.923-14.208 18.494 19.06 32.638 38.038 65.361 57.14 97.929 16.978-29.421 33.957-58.843 50.937-88.264z" fill="#db4437"/><path d="M128.38 69.514v80.297h126.188c4.728-27.312.088-55.727-12.52-80.297z" fill="#ffcd40" paint-order="stroke fill markers"/><ellipse cx="128.382" cy="128.355" rx="58.854" ry="58.842" fill="#f1f1f1"/><ellipse cx="128.382" cy="128.355" rx="47.054" ry="47.044" fill="#4285f4"/><path d="M242.048 69.513a128 127.973 0 00-.093-.181 128 127.973 0 00-.444-.848 128 127.973 0 00-.25-.464h-112.88v.05c-32.514 0-58.854 26.333-58.854 58.84v1.445c0-32.508 26.34-58.844 58.855-58.844z" fill="#3e2723" fill-opacity=".2"/><path d="M20.288 59.816a128 127.973 0 00-.308.488 128 127.973 0 00-.133.214l57.597 98.701h.05c10.157 17.573 29.128 29.422 50.937 29.422 21.76 0 40.73-11.85 50.888-29.422h.05v-1.494h-.1v.052c-10.157 17.573-29.128 29.42-50.887 29.42-21.76 0-40.73-11.847-50.938-29.42h-.05z" fill="#fff" fill-opacity=".1"/><path d="M129.875 69.512c-.249 0-.498.05-.747.05 32.166.398 58.108 26.534 58.108 58.793 0 32.258-25.942 58.394-58.108 58.792.25 0 .498.05.747.05 32.515 0 58.855-26.335 58.855-58.843 0-32.507-26.39-58.842-58.855-58.842z" opacity=".1" fill="#3e2723"/><path d="M2.195 149.81c6.605 40.604 34.218 76.979 71.543 94.27 36.945 17.759 82.385 16.04 117.882-4.461 33.028-18.517 56.813-52.443 62.948-89.809H2.195z" fill="#424242"/><path d="M87.95 211.49v-35.643h10.905c5.477 0 9.859 1.642 13.145 4.928 3.286 3.286 4.93 7.617 4.93 12.844 0 5.277-1.644 9.558-4.93 12.843-3.286 3.286-7.668 4.979-13.145 4.979H87.95zm4.581-4.38h6.324c4.133 0 7.37-1.195 9.809-3.535 2.44-2.34 3.585-5.675 3.585-9.907 0-4.231-1.195-7.517-3.585-9.856-2.39-2.34-5.676-3.535-9.81-3.535h-6.323zm39.336 5.177c-3.685 0-6.672-1.245-8.963-3.684-2.29-2.44-3.485-5.576-3.485-9.31 0-3.534 1.095-6.62 3.336-9.16 2.24-2.538 5.129-3.832 8.614-3.832 3.635 0 6.523 1.194 8.664 3.534s3.286 5.526 3.286 9.459l-.05.846H124c.15 2.44.947 4.38 2.49 5.825 1.494 1.443 3.287 2.14 5.278 2.14 3.287 0 5.527-1.394 6.673-4.182l4.083 1.693c-.797 1.892-2.092 3.485-3.934 4.78-1.842 1.244-4.083 1.89-6.722 1.89zm6.573-15.93c-.1-1.394-.747-2.738-1.942-3.983-1.195-1.244-2.938-1.892-5.228-1.892-1.693 0-3.137.548-4.382 1.593-1.245 1.046-2.091 2.49-2.59 4.282zm15.833 15.133l-9.858-24.393h4.979l7.17 18.917h.1l7.27-18.917h4.879l-9.959 24.393z" fill="#fff"/></svg>