<?xml version="1.0" encoding="UTF-8" standalone="no"?>
<svg
   xmlns:svg="http://www.w3.org/2000/svg"
   xmlns="http://www.w3.org/2000/svg"
   xmlns:sodipodi="http://sodipodi.sourceforge.net/DTD/sodipodi-0.dtd"
   xmlns:inkscape="http://www.inkscape.org/namespaces/inkscape"
   sodipodi:docname="chromeDevLogo.svg"
   width="256"
   height="256"
   inkscape:version="1.0.2 (e86c870, 2021-01-15)">
  <defs
     id="defs905" />
  <sodipodi:namedview
     showguides="true"
     inkscape:guide-bbox="true"
     inkscape:zoom="1.4142136"
     inkscape:cx="291.71305"
     inkscape:cy="91.484101"
     inkscape:window-width="1920"
     inkscape:window-height="1137"
     inkscape:window-x="-8"
     inkscape:window-y="-8"
     inkscape:window-maximized="1" />
  <path
     id="path1845"
     style="vector-effect:none;fill:#0f9d58;fill-opacity:1;fill-rule:nonzero;stroke:none;stroke-width:0.6929;stroke-linecap:butt;stroke-linejoin:miter;stroke-miterlimit:4;stroke-dasharray:none;stroke-dashoffset:0;stroke-opacity:0.779193;paint-order:stroke fill markers"
     d="m 20.304688,59.845703 c -1.837097,2.876695 -3.523977,5.821878 -5.105469,8.796875 C 1.8567093,93.561661 -2.4392145,122.3443 2.195313,149.81017 l 70.55664,3.8e-4 z"
     sodipodi:nodetypes="ccccc" />
  <path
     id="redZone"
     style="fill:#db4437;stroke-width:0.0497868"
     d="M 242.04781,69.511424 C 223.44302,32.955959 186.23735,6.7518976 145.5537,1.5377537 104.97449,-4.2448616 62.169538,11.096975 34.51278,41.35223 29.223103,47.057407 24.470447,53.274714 20.304688,59.845703 39.364896,92.484304 58.342984,125.20717 77.444052,157.77465 94.423231,128.35357 111.40241,98.932499 128.38159,69.511423 Z"
     sodipodi:nodetypes="ccccccc" />
  <path
     id="path2039"
     style="vector-effect:none;fill:#ffcd40;fill-opacity:1;fill-rule:nonzero;stroke:none;stroke-width:0.597443;stroke-linecap:butt;stroke-linejoin:miter;stroke-miterlimit:4;stroke-dasharray:none;stroke-dashoffset:0;stroke-opacity:0.779193;paint-order:stroke fill markers"
     d="m 128.38086,69.513672 v 80.296878 h 126.18555 0.002 c 4.72783,-27.31113 0.088,-55.72642 -12.51953,-80.296878 z"
     sodipodi:nodetypes="cccccc" />
  <ellipse
     style="fill:#f1f1f1;stroke-width:0.0497868"
     cx="128.38159"
     cy="128.35461"
     id="whiteCenterCirc"
     rx="58.854279"
     ry="58.842152" />
  <ellipse
     style="fill:#4285f4;stroke-width:0.0497868"
     cx="128.38159"
     cy="128.35461"
     id="BlueCenterCir"
     rx="47.053551"
     ry="47.043854" />
  <path
     id="path1762"
     style="fill:#3e2723;fill-opacity:0.2;stroke-width:0.0497868"
     d="m 242.04782,69.513399 a 127.99927,127.97289 0 0 0 -0.0928,-0.181775 127.99927,127.97289 0 0 0 -0.44446,-0.84762 127.99927,127.97289 0 0 0 -0.24891,-0.464314 H 128.38159 v 0.0494 c -32.514251,0 -58.854927,26.333943 -58.854927,58.84148 v 1.44432 c 0,-32.507544 26.340676,-58.843464 58.854927,-58.843464 z" />
  <path
     id="path1592"
     style="fill:#ffffff;fill-opacity:0.1;stroke-width:0.0497868"
     d="m 20.287958,59.81614 a 127.99927,127.97289 0 0 0 -0.308161,0.488025 127.99927,127.97289 0 0 0 -0.13235,0.213385 l 57.596599,98.70141 h 0.04939 c 10.157593,17.57297 29.128594,29.42174 50.937544,29.42174 21.75915,0 40.73056,-11.84877 50.88815,-29.42174 h 0.0494 v -1.49371 h -0.0988 v 0.0514 c -10.15759,17.57301 -29.129,29.41976 -50.88816,29.41976 -21.75916,0 -40.730149,-11.84675 -50.937535,-29.41976 h -0.04939 z" />
  <path
     id="ShadowWhiteYellow"
     d="m 129.87535,69.51246 c -0.24896,0 -0.49792,0.0497 -0.74688,0.0497 32.16571,0.398285 58.10741,26.533724 58.10741,58.79236 0,32.25866 -25.9417,58.39413 -58.10741,58.79238 0.24897,0 0.49792,0.0497 0.74688,0.0497 32.51426,0 58.85429,-26.3346 58.85429,-58.8422 0,-32.507545 -26.38983,-58.842146 -58.85429,-58.842146 z"
     style="opacity:0.1;fill:#3e2723;stroke-width:0.0497868" />
  <path
     id="path1661"
     style="fill:#424242;stroke-width:0.052435"
     d="m 2.195313,149.81017 c 6.6044921,40.60372 34.217857,76.97885 71.542892,94.26969 36.944445,17.75919 82.385195,16.03942 117.881725,-4.46118 33.02815,-18.51671 56.81351,-52.44258 62.94784,-89.8083 -84.12415,-7e-5 -168.248305,-1.4e-4 -252.372457,-2.1e-4 z" />
  <path
     id="DevLetters"
     d="m 87.950393,211.49034 v -35.64382 h 10.904472 c 5.477135,0 9.858835,1.64281 13.145115,4.92839 3.28629,3.28561 4.92942,7.61663 4.92942,12.84374 0,5.27685 -1.64313,9.55809 -4.92942,12.8437 -3.28628,3.28562 -7.66798,4.97821 -13.145115,4.97821 H 87.950393 Z m 4.580874,-4.38083 h 6.323598 c 4.132745,0 7.369235,-1.19475 9.809045,-3.53449 2.43982,-2.33974 3.58504,-5.67514 3.58504,-9.90659 0,-4.23149 -1.19502,-7.51707 -3.58504,-9.85681 -2.39002,-2.33974 -5.6763,-3.53452 -9.809045,-3.53452 h -6.323598 z m 39.335773,5.17733 c -3.68462,0 -6.67215,-1.24456 -8.96258,-3.68387 -2.29044,-2.4393 -3.48545,-5.57557 -3.48545,-9.30922 0,-3.53448 1.09543,-6.62098 3.33607,-9.15984 2.24064,-2.53887 5.12859,-3.83321 8.61404,-3.83321 3.63482,0 6.52276,1.19478 8.66383,3.53452 2.14106,2.33974 3.28628,5.5258 3.28628,9.45853 l -0.0498,0.84631 h -19.26955 c 0.14939,2.43931 0.94605,4.3808 2.48961,5.82449 1.49376,1.44364 3.28627,2.14061 5.27796,2.14061 3.28628,0 5.52692,-1.3939 6.67214,-4.18167 l 4.08296,1.69259 c -0.79668,1.89171 -2.09127,3.48474 -3.93358,4.77904 -1.84231,1.24456 -4.08295,1.89172 -6.72194,1.89172 z m 6.57256,-15.9302 c -0.0996,-1.39391 -0.74688,-2.73799 -1.94189,-3.98255 -1.19502,-1.24452 -2.93774,-1.89171 -5.22818,-1.89171 -1.69293,0 -3.1369,0.54759 -4.3817,1.59302 -1.24481,1.0454 -2.09127,2.48909 -2.5892,4.28124 z m 15.83389,15.1337 -9.85884,-24.39314 h 4.97922 l 7.17006,18.91713 h 0.0996 l 7.26965,-18.91713 h 4.87963 l -9.95843,24.39314 z"
     style="fill:#ffffff;stroke-width:0.188171" />
</svg>
