<?xml version="1.0" encoding="UTF-8" standalone="no"?><svg xmlns:dc="http://purl.org/dc/elements/1.1/" xmlns:cc="http://creativecommons.org/ns#" xmlns:rdf="http://www.w3.org/1999/02/22-rdf-syntax-ns#" xmlns:svg="http://www.w3.org/2000/svg" xmlns="http://www.w3.org/2000/svg" width="256" height="256" viewBox="0 0 67.733332 67.733326"><g transform="translate(-70.454767,-134.79014)"><path style="clip-rule:nonzero;fill:#f03a2b;fill-opacity:1;fill-rule:nonzero;stroke:none;stroke-width:0.743173" d="m 136.91007,165.63905 -29.57246,-29.57083 c -1.70114,-1.7041 -4.46476,-1.7041 -6.1688,0 l -6.13977,6.14003 7.78865,7.79189 c 1.81145,-0.61255 3.88708,-0.20329 5.32984,1.2396 1.44859,1.45154 1.85789,3.54758 1.23087,5.362 l 7.50705,7.5103 c 1.81725,-0.62708 3.9103,-0.22364 5.36176,1.23089 2.02917,2.02635 2.02917,5.30975 0,7.339 -2.02625,2.02924 -5.31243,2.02924 -7.34159,0 -1.52404,-1.52701 -1.90145,-3.76529 -1.12924,-5.64359 l -7.00196,-7.00224 v 18.42588 c 0.49351,0.24385 0.96089,0.569 1.37311,0.98124 2.02627,2.02635 2.02627,5.30974 0,7.3419 -2.02917,2.02635 -5.31532,2.02635 -7.33869,0 -2.02917,-2.03216 -2.02917,-5.31555 0,-7.3419 0.49931,-0.50223 1.0799,-0.87964 1.69824,-1.13221 v -18.59716 c -0.61834,-0.25256 -1.19893,-0.62998 -1.69824,-1.13218 -1.53565,-1.53576 -1.90724,-3.78855 -1.12053,-5.67556 l -7.67833,-7.68155 -20.2772,20.27803 c -1.704017,1.70413 -1.704017,4.46787 0,6.16908 l 29.57247,29.57373 c 1.70404,1.7041 4.46477,1.7041 6.16878,0 l 29.43604,-29.4344 c 1.70404,-1.70411 1.70404,-4.46784 0,-6.17195" id="path886" /></g></svg>