<?xml version="1.0" encoding="UTF-8" standalone="no"?>
<svg
   xmlns:dc="http://purl.org/dc/elements/1.1/"
   xmlns:cc="http://creativecommons.org/ns#"
   xmlns:rdf="http://www.w3.org/1999/02/22-rdf-syntax-ns#"
   xmlns:svg="http://www.w3.org/2000/svg"
   xmlns="http://www.w3.org/2000/svg"
   xmlns:xlink="http://www.w3.org/1999/xlink"
   xmlns:sodipodi="http://sodipodi.sourceforge.net/DTD/sodipodi-0.dtd"
   xmlns:inkscape="http://www.inkscape.org/namespaces/inkscape"
   width="256"
   height="256"
   viewBox="0 0 67.733332 67.733335"
   version="1.1"
   id="svg8"
   sodipodi:docname="heidysql.svg"
   inkscape:version="1.0.2 (e86c870, 2021-01-15)">
  <defs
     id="defs2">
    <linearGradient
       inkscape:collect="always"
       id="linearGradient1043">
      <stop
         style="stop-color:#389301;stop-opacity:1"
         offset="0"
         id="stop1039" />
      <stop
         style="stop-color:#226000;stop-opacity:1"
         offset="1"
         id="stop1041" />
    </linearGradient>
    <linearGradient
       inkscape:collect="always"
       id="linearGradient946">
      <stop
         style="stop-color:#d4d4d4;stop-opacity:1"
         offset="0"
         id="stop942" />
      <stop
         style="stop-color:#f7f7f7;stop-opacity:1"
         offset="1"
         id="stop944" />
    </linearGradient>
    <linearGradient
       inkscape:collect="always"
       id="linearGradient938">
      <stop
         style="stop-color:#4dbe00;stop-opacity:1"
         offset="0"
         id="stop934" />
      <stop
         style="stop-color:#348300;stop-opacity:1"
         offset="1"
         id="stop936" />
    </linearGradient>
    <linearGradient
       inkscape:collect="always"
       xlink:href="#linearGradient938"
       id="linearGradient940"
       x1="426.93222"
       y1="212.90175"
       x2="425.2832"
       y2="539.22491"
       gradientUnits="userSpaceOnUse" />
    <linearGradient
       inkscape:collect="always"
       xlink:href="#linearGradient946"
       id="linearGradient948"
       x1="425.2832"
       y1="1007.6465"
       x2="425.2832"
       y2="550.76794"
       gradientUnits="userSpaceOnUse" />
    <linearGradient
       inkscape:collect="always"
       xlink:href="#linearGradient1043"
       id="linearGradient1045"
       x1="425.10938"
       y1="-4.1953125"
       x2="424.43243"
       y2="543.36682"
       gradientUnits="userSpaceOnUse" />
  </defs>
  <sodipodi:namedview
     id="base"
     pagecolor="#ffffff"
     bordercolor="#666666"
     borderopacity="1.0"
     inkscape:pageopacity="0.0"
     inkscape:pageshadow="2"
     inkscape:zoom="1.212852"
     inkscape:cx="198.97399"
     inkscape:cy="171.52265"
     inkscape:document-units="mm"
     inkscape:current-layer="svg8"
     inkscape:document-rotation="0"
     showgrid="false"
     inkscape:window-width="1920"
     inkscape:window-height="1137"
     inkscape:window-x="-8"
     inkscape:window-y="-8"
     inkscape:window-maximized="1"
     showguides="true"
     inkscape:guide-bbox="true"
     units="px" />
  <g
     id="g1315"
     transform="matrix(0.23278928,0,0,0.23265995,7.6725542,0.25825498)">
    <path
       id="path1"
       style="opacity:0.999;fill:url(#linearGradient1045);fill-opacity:1;stroke-width:1.19382"
       d="M 425.10938,-4.1953125 A 549.8528,550.15938 0 0 0 -124.57031,545.96289 H 975.13672 A 549.8528,550.15938 0 0 0 425.2832,-4.1953125 a 549.8528,550.15938 0 0 0 -0.17382,0 z"
       transform="scale(0.26458333)" />
    <path
       id="path2"
       style="opacity:0.999;fill:#97a097;fill-opacity:1;stroke-width:1.19382"
       d="M 975.13672,545.96289 H -124.57031 A 549.8528,550.15938 0 0 0 425.2832,1096.123 549.8528,550.15938 0 0 0 975.13672,545.96289 Z"
       transform="scale(0.26458333)" />
    <path
       id="path3"
       style="opacity:0.999;fill:url(#linearGradient940);fill-opacity:1;stroke-width:1.00183"
       d="M 425.2832,84.279297 A 461.42584,461.68308 0 0 0 -36.142578,545.96289 H 886.70898 A 461.42584,461.68308 0 0 0 425.2832,84.279297 Z"
       transform="scale(0.26458333)" />
    <path
       id="path4"
       style="opacity:0.999;fill:url(#linearGradient948);fill-opacity:1;stroke-width:1.00183"
       d="M 886.70898,545.96289 H -36.142578 A 461.42584,461.68308 0 0 0 425.2832,1007.6465 461.42584,461.68308 0 0 0 886.70898,545.96289 Z"
       transform="scale(0.26458333)" />
    <path
       id="path5"
       style="fill:#ffffff;fill-opacity:0.48996;stroke:none;stroke-width:3.77952px;stroke-linecap:butt;stroke-linejoin:miter;stroke-opacity:1"
       d="m 531.58789,300.7056 c -16.65589,4.97992 -30.19022,14.50281 -40.41041,14.73372 -10.22019,0.23091 -18.84962,-7.50602 -32.30729,-12.66924 -13.45767,-5.16322 -45.38259,-9.16733 -52.54207,-9.20762 -7.15948,-0.0403 -18.81304,0 -26.89843,0 -8.0854,0 -36.58954,1.75187 -61.69198,13.17238 -25.10244,11.42051 -27.36492,50.75191 -32.25814,50.60697 -4.89323,-0.14495 -6.83764,-41.77643 -32.98689,-51.36758 -26.14925,-9.59115 -52.83377,-11.58727 -61.35987,-11.58727 h -26.90039 c -8.5261,0 -42.66381,3.48521 -59.90917,11.78559 -17.245362,8.30038 -34.611887,28.30871 -35.024138,104.8512 -0.412252,76.5425 -0.824503,198.45449 -0.824503,267.57648 0,69.12199 13.032874,107.00509 30.278215,115.30546 23.443936,9.60406 51.300756,14.91272 80.370416,14.91568 21.18712,0.002 57.87901,-3.66437 77.07971,-14.29653 28.24663,-19.28809 24.79785,-48.73202 29.48274,-48.68209 4.27269,0.0455 6.79681,31.29135 21.2592,43.53676 14.46238,12.2454 43.32584,19.55191 93.92188,20.44286 50.59603,0.89096 53.44393,-12.288 75.88171,-11.88518 22.43778,0.40283 28.44768,5.66185 49.64922,10.54228 21.20154,4.88043 137.49473,22.94308 213.8554,-32.84819 76.36067,-55.79126 67.21399,-179.95634 50.36993,-230.4171 -16.84406,-50.46076 -25.60013,-33.48919 -25.80894,-49.99499 -0.2088,-16.5058 15.94353,-29.75197 17.0614,-75.45897 1.11787,-45.707 3.49479,-75.56165 -26.56464,-97.66215 -30.05943,-22.1005 -99.67441,-33.60213 -139.36006,-32.67361 -39.68565,0.92852 -67.70701,6.30122 -84.3629,11.28114 z"
       transform="scale(0.26458333)"
       sodipodi:nodetypes="zzzzzzzzzzzzzcscszzzzzzzzzzz" />
    <path
       id="path6"
       style="opacity:0.999;fill:#ffffff;fill-opacity:0.293173;stroke-width:1.19382"
       d="M 425.10938,-4.1953125 A 549.85277,550.15937 0 0 0 99.294922,102.91797 c -1.13697,12.49139 -1.772,22.94867 -1.8125,29.18945 -0.441184,67.98958 80.343848,109.90306 102.855468,120.1836 22.51162,10.28053 29.49829,18.3052 129.77539,47.52148 100.27718,29.21628 301.78861,24.69071 396.43164,10.35742 89.99432,-13.62925 161.3777,-47.23231 168.25196,-50.53711 A 549.85277,550.15937 0 0 0 425.2832,-4.1953125 a 549.85277,550.15937 0 0 0 -0.17382,0 z"
       transform="scale(0.26458333)" />
    <path
       id="path7"
       style="fill:#000000;stroke:none;stroke-width:0.999999px;stroke-linecap:butt;stroke-linejoin:miter;stroke-opacity:1"
       d="m 619.79688,358.44336 c -1.72525,0.0254 -3.45027,0.0789 -5.17383,0.1582 -38.5945,2.37679 -81.8622,14.7344 -103.73633,49.18946 -19.49076,34.08404 -20.83963,79.37981 -0.43555,113.36914 22.82929,35.52506 64.76171,49.78334 101.36133,66.45703 19.31531,9.13194 41.86244,22.75276 43.08984,46.5625 3.05065,26.97135 -23.81589,46.89555 -48.28515,49.29101 -27.04139,1.75325 -54.78776,-4.35117 -79.00391,-16.40234 -10.73038,-5.41603 -31.3946,-26.10782 -35.63867,-3.78906 -0.97591,18.36264 -7.78195,41.59627 8.47656,55.43554 13.10226,8.08906 27.53141,14.46633 42.38477,18.62305 50.02307,11.52042 107.88457,9.65549 149.61914,-23.61523 37.66159,-28.31944 49.04008,-82.06491 34.01562,-125.41602 -10.38089,-33.18278 -42.62705,-51.62152 -71.95312,-65.93164 -22.89313,-12.2651 -49.70097,-18.49119 -68.86914,-36.79688 -20.50296,-18.1562 -13.36695,-56.46181 12.97265,-64.92187 30.07151,-9.28724 62.41521,1.20073 88.71875,16.25977 12.43476,12.84011 27.46375,2.34594 24.27149,-13.92969 -1.07358,-14.13717 3.78495,-31.47178 -7.51172,-42.5625 -21.79854,-18.04165 -51.93941,-20.47471 -79.12695,-21.97071 -1.72515,-0.0326 -3.45054,-0.0351 -5.17578,-0.01 z m -455.56641,5.16211 c -14.24566,0 -25.71485,5.52064 -25.71485,12.37891 v 351.00976 c 0,6.85826 11.46919,12.37891 25.71485,12.37891 h 26.90039 c 14.24566,0 25.71289,-5.52065 25.71289,-12.37891 V 576.89062 h 136.86719 v 150.10352 c 0,6.85826 11.46918,12.37891 25.71484,12.37891 h 26.90039 c 14.24566,0 25.71289,-5.52065 25.71289,-12.37891 V 375.98438 c 0,-6.85827 -11.46723,-12.37891 -25.71289,-12.37891 h -26.90039 c -14.24566,0 -25.71484,5.52064 -25.71484,12.37891 v 136.1875 H 216.84375 v -136.1875 c 0,-6.85827 -11.46723,-12.37891 -25.71289,-12.37891 z"
       transform="scale(0.26458333)" />
  </g>
  <metadata
     id="metadata1317">
    <rdf:RDF>
      <cc:Work
         rdf:about="">
        <dc:title></dc:title>
      </cc:Work>
    </rdf:RDF>
  </metadata>
</svg>
