<svg xmlns="http://www.w3.org/2000/svg" width="256" height="133" viewBox="0 0 19.738 10.255"><g clip-rule="evenodd" fill-rule="evenodd"><path d="M0 9.342h.651V6.76L1.67 9.011c.115.27.28.371.601.371.32 0 .476-.1.596-.37L3.88 6.76v2.582h.656V6.76c0-.25-.1-.371-.31-.436-.497-.15-.827-.02-.978.316L2.25 8.866 1.288 6.64c-.145-.336-.481-.467-.982-.316C.1 6.389 0 6.509 0 6.76v2.582zm5.076-2.1h.657V8.66c-.005.08.025.261.38.266.186.005 1.414 0 1.424 0V7.23h.656v2.322c0 .571-.707.697-1.037.702H5.09v-.437h2.07c.42-.045.37-.255.37-.325v-.171H6.144c-.646-.005-1.062-.29-1.067-.617 0-.03.015-1.454 0-1.464zM14.046 1.24a.79.79 0 00-.206.025v.01h.01c.04.08.11.135.16.205.04.08.076.16.116.241l.01-.01c.07-.05.105-.13.105-.25-.03-.036-.035-.07-.06-.106-.03-.05-.095-.075-.135-.115zm5.111 4.357c-.4-.01-.712.03-.972.14-.075.03-.196.03-.205.126.04.04.044.105.08.16.06.1.165.236.26.306.106.08.21.16.32.23.196.12.417.191.607.311.11.07.22.16.33.236.056.04.091.106.161.13v-.015c-.035-.045-.045-.11-.08-.16-.05-.05-.1-.095-.15-.145a2.37 2.37 0 00-.522-.507c-.16-.11-.51-.26-.576-.446l-.01-.01c.11-.01.24-.05.346-.08.17-.045.326-.036.501-.08.08-.02.16-.046.24-.07v-.046c-.09-.09-.155-.21-.25-.296a6.68 6.68 0 00-.827-.616c-.155-.1-.356-.166-.52-.251-.061-.03-.161-.045-.196-.095-.09-.11-.14-.256-.206-.386a12.654 12.654 0 01-.41-.873c-.09-.195-.146-.39-.256-.571-.516-.853-1.078-1.37-1.94-1.876-.185-.105-.405-.15-.64-.205-.126-.005-.251-.015-.377-.02-.08-.035-.16-.13-.23-.176-.286-.18-1.022-.571-1.233-.055-.135.326.2.647.316.812.085.116.195.246.255.376.035.086.045.176.08.266.08.22.156.466.261.672.055.105.115.216.185.311.04.055.11.08.126.17-.07.1-.075.251-.116.377-.18.566-.11 1.268.146 1.684.08.126.27.401.526.296.226-.09.175-.376.24-.627.016-.06.005-.1.035-.14v.01c.07.14.14.276.206.416.155.246.426.501.652.672.12.09.215.246.365.3v-.014h-.01c-.03-.045-.075-.065-.115-.1-.09-.09-.19-.201-.26-.301a6.463 6.463 0 01-.562-.913c-.08-.155-.15-.326-.215-.481-.03-.06-.03-.15-.08-.18-.076.11-.186.205-.241.34-.095.216-.105.481-.14.757-.02.005-.01 0-.02.01-.16-.04-.216-.205-.276-.346-.15-.356-.175-.927-.045-1.338.035-.106.185-.437.125-.537-.03-.095-.13-.15-.185-.225a2.026 2.026 0 01-.18-.321c-.12-.281-.18-.592-.311-.873-.06-.13-.166-.266-.25-.386-.096-.135-.201-.23-.276-.39-.025-.056-.06-.146-.02-.206.01-.04.03-.056.07-.066.065-.055.25.015.316.045.185.076.34.146.495.251.07.05.146.145.236.17h.105c.16.036.341.01.491.056.266.085.506.21.722.346a4.447 4.447 0 011.563 1.714c.06.116.086.221.14.341.106.246.236.497.341.737.106.236.206.477.356.672.076.106.376.16.511.216.1.045.256.085.346.14.17.106.34.226.501.341.08.06.331.186.346.286z" fill="#00678c"/><path d="M8.694 9.342h1.884c.22 0 .431-.045.602-.125.285-.13.42-.306.42-.537V8.2c0-.186-.155-.362-.465-.482a1.64 1.64 0 00-.557-.095h-.791c-.266 0-.391-.08-.426-.256-.005-.02-.005-.04-.005-.06V7.01c0-.015 0-.035.005-.055.035-.136.105-.17.336-.196h1.929v-.436H9.792c-.266 0-.406.015-.532.055-.385.12-.556.311-.556.647v.381c0 .296.33.547.892.607.06.005.125.005.19.005h.677c.025 0 .05 0 .07.005.206.02.296.055.356.13.04.04.05.075.05.12v.382c0 .044-.03.105-.09.155a.468.468 0 01-.28.09c-.026 0-.04.005-.066.005H8.694zm6.985-.757c0 .446.336.697 1.008.747.065.005.125.01.19.01h1.704v-.436h-1.719c-.381 0-.526-.095-.526-.326V6.324h-.657v2.261zm-3.663.02V7.051c0-.396.28-.637.827-.712.06-.005.12-.01.176-.01h1.242c.065 0 .12.005.186.01.546.075.821.316.821.712v1.554c0 .32-.115.491-.386.607l.642.581h-.757l-.52-.47-.527.03h-.702c-.115 0-.245-.016-.38-.05-.416-.116-.622-.337-.622-.698zm.707-.035c0 .02.01.04.015.065.035.18.205.281.466.281h.591l-.54-.491h.756l.476.431c.09-.05.145-.12.165-.21.005-.02.005-.046.005-.066V7.09c0-.02 0-.039-.005-.06-.035-.17-.205-.265-.46-.265h-.988c-.29 0-.481.126-.481.326zm6.159.777h.095v-.366h.125v-.075h-.35v.075h.13zm.726 0h.09v-.441h-.135l-.11.3-.12-.3h-.13v.441h.085v-.336h.005l.125.336h.065l.125-.336v.336z" fill="#ce8b2c"/></g></svg>