<svg xmlns="http://www.w3.org/2000/svg" xmlns:xlink="http://www.w3.org/1999/xlink" width="256" height="256" viewBox="0 0 67.733 67.733"><defs><linearGradient id="a"><stop offset="0" stop-color="#4f8bf3"/><stop offset="1" stop-color="#3f6ec1"/></linearGradient><linearGradient xlink:href="#a" id="b" x1="76.217" y1="133.469" x2="128.106" y2="133.605" gradientUnits="userSpaceOnUse" spreadMethod="pad"/><linearGradient xlink:href="#a" id="c" x1="171.827" y1="487.197" x2="373.352" y2="486.489" gradientUnits="userSpaceOnUse" gradientTransform="matrix(-.26458 0 0 -.26458 144.071 261.585)"/></defs><g transform="matrix(1.0749 0 0 1.07878 -43.565 -107.23)"><rect width="53.426" height="48.834" x="75.544" y="109.821" transform="skewX(-13.01) scale(1 .97433)" ry="3.523" opacity=".999" fill="url(#b)"/><path d="M89.729 154.583c1.951 0 3.876-1.53 4.315-3.432l9.409-40.716c.439-1.902-.778-3.433-2.73-3.433H54.342c-1.952 0-3.876 1.531-4.316 3.433L40.62 151.15c-.44 1.901.778 3.432 2.73 3.432zm-.35-.47H43.915c-1.913 0-3.106-1.5-2.676-3.364l9.222-39.913c.431-1.864 2.318-3.364 4.231-3.364h45.466c1.913 0 3.106 1.5 2.675 3.364L93.61 150.75c-.43 1.864-2.317 3.365-4.23 3.365z" fill="url(#c)"/><path d="M66.244 114.96c-.261-.276 3.758 4.005 12.573 13.394l-25.634 19.738a2.81 2.81 0 004.07.55l7.617-5.562 13.346-9.642c1.07-.71 1.9-1.742 1.737-3.064-.069-.563-.266-1.054-.607-1.457L66.244 114.96zm19.15 29.605l-16.015 1.812a2.375 2.375 0 002.288 1.72h11.642a2.376 2.376 0 002.38-2.38c0-.419-.107-.81-.295-1.152z" opacity=".203"/><path d="M62.401 112.164a2.815 2.815 0 00-1.949 4.846l11.94 12.766c-6.486 3.958-12.767 9.236-19.043 13.805a2.815 2.815 0 103.376 4.5l7.616-5.563 13.346-9.642c1.07-.71 1.9-1.742 1.737-3.064-.07-.564-.266-1.054-.607-1.458l-14.31-15.243a2.816 2.816 0 00-2.106-.947zm9.064 30.68a2.376 2.376 0 00-2.38 2.38 2.376 2.376 0 002.38 2.382h11.642a2.376 2.376 0 002.381-2.381 2.376 2.376 0 00-2.38-2.382z" opacity=".999" fill="#fff"/></g></svg>