<svg xmlns="http://www.w3.org/2000/svg" width="256" height="256" viewBox="0 0 67.733 67.733"><path d="M31.028 5.316A2667.883 2667.883 0 0167.726 0c.007 10.7 0 21.394.007 32.095-12.232.046-24.465.232-36.705.27-.008-9.021-.008-18.035 0-27.05zM0 9.633c9.2-1.416 18.439-2.638 27.677-3.791.008 8.875.008 17.742.016 26.616-9.23-.008-18.462.132-27.693.109zM0 35.36c9.224-.031 18.446.116 27.669.1 0 8.899.023 17.797.008 26.695C18.462 60.792 9.231 59.6 0 58.355zM30.973 35.716h36.753c.015 10.67 0 21.34 0 32.017-12.218-1.826-24.458-3.52-36.698-5.175-.016-8.945-.04-17.89-.055-26.842z" fill="#00adef"/><path d="M48.611 27.712l-1.619 3.887a.409.409 0 01-.363.25c-1.252.04-2.386.272-3.559.59a.409.409 0 01-.412-.122l-2.762-3.088-5.7 3.475 1.63 3.844a.409.409 0 01-.07.431c-.798.903-1.53 1.898-2.121 3.004a.409.409 0 01-.395.215l-4.187-.344-1.506 6.452 3.896 1.617a.409.409 0 01.252.363c.04 1.248.274 2.379.592 3.549a.409.409 0 01-.125.414l-3.191 2.814 3.498 5.608 3.943-1.613a.409.409 0 01.424.072c.905.796 1.903 1.526 3.012 2.115a.409.409 0 01.216.387l-.25 4.12 6.475 1.505 1.621-3.889a.409.409 0 01.358-.25c1.177-.058 2.4-.274 3.564-.59a.409.409 0 01.414.123l2.822 3.186 5.623-3.488-1.617-3.932a.409.409 0 01.072-.428c.804-.909 1.513-1.821 2.102-2.924a.409.409 0 01.393-.214l4.107.324 1.508-6.451-3.897-1.616a.409.409 0 01-.252-.363 13.566 13.566 0 00-.587-3.537.409.409 0 01.123-.432l3.17-2.732-3.485-5.688-3.924 1.538a.409.409 0 01-.418-.075c-.905-.796-1.909-1.53-2.94-2.101a.409.409 0 01-.208-.383l.25-4.12zm-.982 11.744c.533.014 1.07.08 1.605.205 4.28.994 7.056 5.332 6.04 9.684a8.072 8.072 0 01-9.706 6.025c-4.356-1.012-7.056-5.338-6.04-9.685.762-3.265 3.431-5.58 6.525-6.114a8.04 8.04 0 011.576-.115z" fill="#eaeaea" stroke="#000" stroke-width=".529" stroke-linejoin="round"/></svg>