<svg xmlns="http://www.w3.org/2000/svg" width="256" height="256" viewBox="0 0 67.733 67.733"><defs><linearGradient gradientTransform="matrix(3.30788 -11.06322 9.3623 3.82761 -123.229 -79.15)" gradientUnits="userSpaceOnUse" y2="0" x2="1" y1="0" x1="0" id="a"><stop offset="0" stop-color="#ff9700"/><stop offset=".53" stop-color="#f48e00"/><stop offset="1" stop-color="#ce6e00"/></linearGradient></defs><path d="M65.11 67.733H2.624A2.634 2.634 0 010 65.11V2.623A2.634 2.634 0 012.623 0H65.11a2.634 2.634 0 012.622 2.623v62.502a2.63 2.63 0 01-2.622 2.608z" fill="#404040"/><path d="M-105.89-96.255c0-.588-.435-.927-.969-.759l-36.693 11.639c-.535.17-.968.784-.968 1.371v11.895c0 .588.433.929.968.759l36.693-11.637c.534-.17.968-.785.968-1.373z" clip-rule="evenodd" fill="url(#a)" fill-rule="evenodd" transform="translate(159.07 130.27)"/><path d="M52.406 8.774a.937.937 0 00-.195.04L15.518 20.451c-.625.323-.898.76-.969 1.373v11.812c.021.595.467 1.202.969 1.373l36.699 11.639c.534.17.967-.17.967-.758V33.994c0-.587-.433-1.202-.967-1.371L36.79 27.73l15.42-4.89c.534-.17.968-.786.968-1.373V9.573c0-.515-.332-.84-.773-.8z" clip-rule="evenodd" fill="#ff9800" fill-rule="evenodd"/></svg>