<svg xmlns="http://www.w3.org/2000/svg" xmlns:xlink="http://www.w3.org/1999/xlink" width="256" height="256" viewBox="0 0 67.733 67.733"><defs><linearGradient id="b"><stop offset="0" stop-color="#e2e2e2"/><stop offset="1" stop-color="#cfcfcf"/></linearGradient><linearGradient id="a"><stop offset="0" stop-color="#4c4c4c"/><stop offset="1" stop-color="#333"/></linearGradient><linearGradient xlink:href="#a" id="c" x1="101.728" y1="173.74" x2="169.313" y2="210.565" gradientUnits="userSpaceOnUse" gradientTransform="matrix(.99785 0 0 .99658 20.157 83.356)"/><linearGradient xlink:href="#b" id="d" x1="133.302" y1="206.478" x2="155.736" y2="206.478" gradientUnits="userSpaceOnUse" gradientTransform="matrix(.99785 0 0 .99658 20.157 83.356)"/><linearGradient xlink:href="#b" id="e" x1="208.254" y1="49.894" x2="229.27" y2="49.894" gradientUnits="userSpaceOnUse" gradientTransform="matrix(.99722 -.00064 -.00064 .99722 73.195 44.689)"/></defs><g transform="matrix(1.00215 0 0 1.00344 -20.2 -83.643)" paint-order="stroke fill markers"><path d="M20.157 100.214v39.594a2.734 2.734 0 002.74 2.74l62.105.004a2.734 2.734 0 002.74-2.74v-2.773h.002v-36.825z" fill="url(#c)"/><path fill="#999" d="M43.545 91.662h22.206v8.599H43.545z"/><path d="M22.897 91.668l20.648-.006v8.6l-23.388-.048v-5.806a2.734 2.734 0 012.74-2.74z" fill="#ccc"/><path d="M85.005 91.668l-19.254-.006v8.599l21.993-.048.001-5.805a2.734 2.734 0 00-2.74-2.74z" fill="#666"/><rect rx="1.32" ry="1.318" y="129.702" x="51.731" height="6.501" width="22.434" fill="url(#d)"/><rect transform="rotate(135)" ry="1.319" y="-119.601" x="52.027" height="7.111" width="21.016" rx="1.319" fill="#a4a4a4"/><rect transform="rotate(45)" rx="1.319" ry="1.319" y="52.027" x="98.584" height="7.111" width="21.016" fill="url(#e)"/></g></svg>